<svg width="33" height="32" viewBox="0 0 33 32" fill="none" xmlns="http://www.w3.org/2000/svg">
<g clip-path="url(#clip0_2_237)">
<path d="M16.93 17.6187C16.9913 16.552 17.514 15.6107 18.3033 14.944C19.1315 14.2561 20.1761 13.883 21.2527 13.8907C22.386 13.8907 23.4273 14.2907 24.2007 14.944C24.99 15.6107 25.5113 16.552 25.5713 17.6173C25.6313 18.7147 25.1913 19.732 24.418 20.488C23.5662 21.3015 22.4305 21.7502 21.2527 21.7387C20.0741 21.7504 18.9374 21.3017 18.0847 20.488C17.3113 19.732 16.87 18.7147 16.93 17.6187ZM10.05 19.7747C10.058 20.1933 10.1913 21.004 10.3913 21.6387C10.8231 23.0041 11.548 24.2587 12.5153 25.3147C13.5527 26.4553 14.8189 27.3644 16.2313 27.9827C17.7685 28.6603 19.4315 29.0056 21.1113 28.996C22.7909 28.9993 24.4524 28.6486 25.9873 27.9667C27.3987 27.3425 28.6637 26.4296 29.7007 25.2867C30.6664 24.2272 31.3906 22.9707 31.8233 21.604C32.2394 20.2799 32.3533 18.8793 32.1567 17.5053C31.9694 16.189 31.5079 14.9267 30.802 13.8C30.148 12.7519 29.3117 11.8294 28.3327 11.076H28.3353L18.338 3.4L18.3113 3.38C17.6553 2.876 16.5527 2.87866 15.8313 3.38266C15.102 3.892 15.0193 4.736 15.6673 5.26933L15.666 5.27066L19.834 8.66133L7.12733 8.67466H7.11C6.05933 8.676 5.05 9.36533 4.85 10.2373C4.64466 11.124 5.35666 11.86 6.45 11.864V11.8667L12.89 11.8533L1.39666 20.676L1.35133 20.7093C0.26733 21.5387 -0.0820034 22.92 0.600663 23.7933C1.294 24.6827 2.76733 24.684 3.86333 23.7987L10.1353 18.6667C10.1353 18.6667 10.042 19.36 10.05 19.7747ZM26.17 22.096C24.8767 23.4133 23.0687 24.16 21.11 24.1627C19.15 24.168 17.3407 23.4267 16.0473 22.112C15.4366 21.4989 14.9655 20.7612 14.666 19.9493C14.3915 19.1855 14.2831 18.3719 14.348 17.5628C14.4128 16.7537 14.6494 15.9677 15.042 15.2573C15.4326 14.5551 15.9545 13.9345 16.5793 13.4293C17.8353 12.4053 19.434 11.852 21.1073 11.8493C22.782 11.8467 24.3807 12.396 25.638 13.416C26.278 13.9373 26.798 14.5547 27.174 15.2387C27.5632 15.9396 27.8004 16.7146 27.87 17.5133C27.9407 18.3318 27.8319 19.1559 27.5513 19.928C27.2518 20.7411 26.7799 21.4804 26.17 22.096Z" fill="black"/>
</g>
<defs>
<clipPath id="clip0_2_237">
<rect width="32" height="32" fill="white" transform="translate(0.25)"/>
</clipPath>
</defs>
</svg>
