<svg width="33" height="32" viewBox="0 0 33 32" fill="none" xmlns="http://www.w3.org/2000/svg">
<g clip-path="url(#clip0_2_239)">
<path d="M16.078 0.254991C15.586 0.247091 15.0975 0.337985 14.6412 0.522293C14.185 0.7066 13.7704 0.980573 13.422 1.32799L1.65599 13.375C-2.80201 17.828 4.54099 17.458 7.19199 19.146C8.42099 19.948 3.25399 20.974 4.30699 22.031C5.33799 23.088 10.51 24.057 11.536 25.088C12.567 26.14 9.45299 27.255 10.479 28.312C11.479 29.369 13.88 28.369 14.307 30.765C14.62 32.536 18.708 31.656 20.536 30.14C21.677 29.166 18.562 29.166 19.593 28.109C22.166 25.51 24.447 26.942 25.39 24.541C25.906 23.26 21.505 22.343 22.676 21.515C25.478 19.546 35.759 18.546 31.02 13.807L18.822 1.32799C18.0783 0.631793 17.0957 0.247698 16.077 0.254991H16.078ZM16.177 1.40099C16.885 1.40599 17.594 1.66699 18.104 2.17699L22.76 6.92199C23.192 7.34899 23.192 8.23499 22.932 8.48999L20.619 6.60999L20.161 9.38099L18.25 8.34999L15.135 10.319L14.109 6.18399L12.453 9.77799L8.30699 9.75199C7.50999 9.75199 7.62499 8.92399 8.45299 8.09599C10.078 6.29399 13.25 3.24199 14.25 2.18499C14.766 1.65399 15.469 1.39899 16.177 1.40399V1.40099ZM29.188 23.099C28.198 23.135 27.193 23.63 26.933 24.542C26.933 25.141 31.589 25.485 31.334 24.401C31.146 23.484 30.178 23.062 29.188 23.099ZM8.72399 25.693C7.37999 25.771 5.94299 26.75 7.08299 27.709C8.13499 28.626 9.73899 27.511 10.25 26.23C9.93199 25.808 9.33899 25.657 8.72899 25.699H8.72399V25.693ZM26.365 25.797C25.047 26.995 26.589 28.255 27.875 27.427C28.219 27.193 27.849 26.083 26.365 25.797Z" fill="black"/>
</g>
<defs>
<clipPath id="clip0_2_239">
<rect width="32" height="32" fill="white" transform="translate(0.25)"/>
</clipPath>
</defs>
</svg>
