<svg class="appLogo-module--appLogo--uNcbA" viewBox="0 0 192 64"><path d="M19.75,63.77C9.69,63.77,1,57.83,1,45.79H11c0,5.68,4.12,8.6,8.77,8.6s8.6-2.66,8.6-9.29V1.67H38.41V46C38.41,58.61,29.55,63.77,19.75,63.77Zm32.3-50.89a6.4,6.4,0,0,1-6.36-6.37A6.39,6.39,0,0,1,52.05.23a6.26,6.26,0,0,1,6.28,6.28A6.28,6.28,0,0,1,52.05,12.88Zm-4.73,6.85h9.46v43H47.32ZM81.46,63.16c-8.26,0-14.71-4.55-14.71-14.27V7.78h9.46v12H86.62v8.43H76.21V47.34c0,5.33,2.33,7.22,7.23,7.22a15.22,15.22,0,0,0,5.07-.77v8.43A23,23,0,0,1,81.46,63.16Zm26.15,0c-8.26,0-14.71-4.55-14.71-14.27V7.78h9.46v12h12.3v8.43h-12.3V47.34c0,5.33,2.32,7.22,7.23,7.22a15.26,15.26,0,0,0,5.07-.77v8.43A23,23,0,0,1,107.61,63.16Zm31.85-44.29c11.26,0,20.72,7.49,20.72,21.33,0,.95,0,1.72-.08,3.1H126.3c.43,7.05,6.11,11.69,13.24,11.69,6,0,10.07-2.75,12.3-6.53l7.23,5.16c-3.87,6.1-10.58,10-19.61,10-13.07,0-22.45-9.28-22.45-22.36C117,28.59,126.39,18.87,139.46,18.87ZM126.73,36.42h23.91c-1-6.19-6-9.55-11.53-9.55S128,30.05,126.73,36.42Zm39.64-16.69h9.46v7.66a12.11,12.11,0,0,1,11.36-8.09,18.33,18.33,0,0,1,3.69.35v9.72a14.62,14.62,0,0,0-4.73-.78c-5.41,0-10.32,4.56-10.32,13.16v21h-9.46Z"></path></svg>