<svg width="33" height="32" viewBox="0 0 33 32" fill="none" xmlns="http://www.w3.org/2000/svg">
<g clip-path="url(#clip0_2_235)">
<path d="M5.9165 0.399994C2.78325 0.399994 0.25 2.93349 0.25 6.06699V25.933C0.25 29.0665 2.78325 31.6 5.9165 31.6H26.5835C29.7167 31.6 32.25 29.0665 32.25 25.933V6.06699C32.25 2.93349 29.7167 0.399994 26.5835 0.399994H5.9165ZM11.7168 8.33349C12.81 8.33349 13.7168 8.46649 14.4633 8.74649C15.1326 8.97394 15.743 9.34756 16.25 9.84024C16.6797 10.2712 17.0117 10.7895 17.2235 11.36C17.4235 11.92 17.5298 12.4932 17.5298 13.0932C17.5298 14.24 17.2633 15.1865 16.7297 15.9332C16.1967 16.6797 15.4502 17.24 14.5835 17.56C13.6768 17.8935 12.6768 18.0132 11.5835 18.0132C11.2635 18.0132 11.0498 18.0132 10.9165 18C10.7832 17.9867 10.5965 17.9867 10.3433 17.9867V22.2667C10.3565 22.36 10.29 22.4402 10.1967 22.4535H7.61C7.5035 22.4535 7.4505 22.3997 7.4505 22.2797V8.55999C7.4505 8.46674 7.4905 8.41299 7.58375 8.41299C7.8105 8.41299 8.02375 8.41299 8.33025 8.39999C8.65025 8.38649 8.9835 8.38699 9.3435 8.37349C9.7035 8.36024 10.0903 8.35999 10.5035 8.34674C10.917 8.33324 11.3168 8.33349 11.7168 8.33349ZM12.0142 10.9595C11.9462 10.9582 11.8781 10.9583 11.81 10.96C11.4635 10.96 11.1567 10.9602 10.9032 10.9737C10.6367 10.9602 10.4503 10.9735 10.357 10.9867V15.4667C10.5435 15.4802 10.7165 15.4932 10.8765 15.4932H11.5835C12.1035 15.4932 12.6235 15.4132 13.1167 15.2532C13.5435 15.1332 13.9167 14.8797 14.21 14.5465C14.49 14.213 14.6235 13.76 14.6235 13.1732C14.6361 12.7567 14.5298 12.3451 14.317 11.9867C14.0903 11.6402 13.77 11.3732 13.3833 11.2267C12.9515 11.0517 12.4893 10.9687 12.0142 10.9595ZM23.1968 11.6402C23.7435 11.6402 24.3035 11.6797 24.85 11.7597C25.25 11.813 25.6365 11.9202 25.9965 12.067C26.05 12.0802 26.1032 12.1332 26.1297 12.1865C26.1432 12.2397 26.1567 12.2932 26.1567 12.3465V14.52C26.157 14.5459 26.1511 14.5715 26.1395 14.5946C26.128 14.6178 26.1111 14.6379 26.0903 14.6532C25.9702 14.68 25.9035 14.68 25.8503 14.6532C25.4503 14.44 25.0233 14.2935 24.5697 14.2002C24.0765 14.0935 23.5833 14.0265 23.0767 14.0265C22.81 14.013 22.5298 14.0535 22.2765 14.12C22.103 14.16 21.9565 14.2535 21.8633 14.3867C21.7968 14.4935 21.7568 14.6267 21.7568 14.7467C21.7568 14.8667 21.8102 14.9867 21.8902 15.0932C22.0103 15.24 22.17 15.3602 22.3433 15.4537C22.6524 15.6136 22.9683 15.7601 23.29 15.893C24.01 16.133 24.7033 16.4667 25.3433 16.8667C25.7833 17.1467 26.1432 17.5202 26.3965 17.9735C26.6109 18.3988 26.7164 18.8706 26.7035 19.3467C26.7141 19.977 26.5326 20.5955 26.183 21.12C25.8112 21.6522 25.2924 22.0645 24.69 22.3065C24.0365 22.5865 23.2365 22.7332 22.2765 22.7332C21.663 22.7332 21.0635 22.68 20.4635 22.56C19.9932 22.4787 19.5359 22.3352 19.1035 22.1332C19.0103 22.08 18.9432 21.9865 18.9565 21.8797V19.56C18.9565 19.52 18.9697 19.4665 19.0098 19.44C19.0498 19.4132 19.0897 19.427 19.1297 19.4535C19.6434 19.7564 20.2013 19.9769 20.7833 20.107C21.29 20.2402 21.8235 20.3067 22.357 20.3067C22.8635 20.3067 23.2235 20.24 23.4635 20.12C23.6767 20.0267 23.8232 19.8 23.8232 19.56C23.8232 19.3735 23.7167 19.1997 23.5033 19.0262C23.29 18.853 22.85 18.6532 22.1968 18.4C21.5265 18.1638 20.8899 17.8411 20.3032 17.44C19.8855 17.1422 19.5394 16.7551 19.29 16.3067C19.0772 15.8856 18.9719 15.4184 18.9835 14.9467C18.9835 14.3735 19.1433 13.8267 19.4365 13.3335C19.7698 12.8002 20.2635 12.3735 20.837 12.107C21.4635 11.787 22.2498 11.6402 23.1968 11.6402Z" fill="black"/>
</g>
<defs>
<clipPath id="clip0_2_235">
<rect width="32" height="32" fill="white" transform="translate(0.25)"/>
</clipPath>
</defs>
</svg>
