<svg width="22" height="32" viewBox="0 0 22 32" fill="none" xmlns="http://www.w3.org/2000/svg">
<g clip-path="url(#clip0_2_233)">
<path d="M5.2062 0H10.3914V10.3706H5.20626C-1.63187 10.1033 -1.70093 0.28075 5.2062 0ZM5.2062 21.1848H10.3914V10.8142H5.20626C-1.70086 11.0949 -1.63186 20.9175 5.2062 21.1848ZM16.0204 0H10.835V10.3706H16.0204C22.9505 9.99975 22.8641 0.211688 16.0204 0ZM10.3914 26.8137V21.6284H5.20626C0.974885 21.6284 -1.70086 26.5894 1.24195 30.1526C4.0477 33.6844 10.3915 31.9236 10.3915 26.8137M21.2163 15.9995C21.2163 12.0145 16.8726 9.51044 13.4166 11.5029C9.96051 13.4954 9.96045 18.5036 13.4166 20.4961C16.8727 22.4886 21.2163 19.9845 21.2163 15.9995Z" fill="black"/>
</g>
<defs>
<clipPath id="clip0_2_233">
<rect width="21.25" height="32" fill="white"/>
</clipPath>
</defs>
</svg>
