<svg width="32" height="32" viewBox="0 0 32 32" fill="none" xmlns="http://www.w3.org/2000/svg">
<path d="M20.376 2.36625C20.6192 2.668 20.7432 3.07525 20.9902 3.88875L26.4042 21.6727C24.3708 20.6173 22.1881 19.8784 19.9317 19.4815L16.4072 7.57C16.3794 7.47478 16.3215 7.39116 16.242 7.33171C16.1626 7.27225 16.0661 7.24017 15.9669 7.24029C15.8677 7.2404 15.7712 7.2727 15.6919 7.33233C15.6126 7.39197 15.5549 7.47572 15.5272 7.571L12.045 19.4755C9.77874 19.8708 7.5864 20.6108 5.54425 21.67L10.9837 3.885C11.2327 3.0725 11.3567 2.666 11.5997 2.36425C11.8145 2.09864 12.0936 1.89229 12.4105 1.76475C12.7687 1.621 13.1945 1.621 14.0442 1.621H17.93C18.7805 1.621 19.2062 1.621 19.5657 1.76575C19.8828 1.89326 20.1617 2.10003 20.376 2.36625ZM21.0235 22.5187C20.131 23.2822 18.3495 23.8027 16.2977 23.8027C13.7802 23.8027 11.669 23.0185 11.1092 21.9637C10.9092 22.5682 10.8642 23.2597 10.8642 23.7022C10.8642 23.7022 10.7325 25.871 12.2412 27.3797C12.2412 27.1935 12.2779 27.0092 12.3492 26.8371C12.4205 26.6651 12.5249 26.5088 12.6566 26.3772C12.7883 26.2455 12.9446 26.1411 13.1166 26.0698C13.2887 25.9986 13.473 25.962 13.6592 25.962C15.0017 25.962 15.001 27.1327 15 28.084V28.168C15 29.6112 15.8817 30.8477 17.1357 31.3692C16.9425 30.9722 16.8423 30.5363 16.8427 30.0947C16.8427 28.7177 17.6502 28.206 18.5897 27.6102C19.337 27.1367 20.167 26.6102 20.7382 25.5547C21.0466 24.986 21.2077 24.3492 21.207 23.7022C21.2074 23.3006 21.1455 22.9015 21.0235 22.5187Z" fill="black"/>
</svg>
