<svg width="32" height="32" viewBox="0 0 32 32" fill="none" xmlns="http://www.w3.org/2000/svg">
<g clip-path="url(#clip0_2_119)">
<path d="M3.77275 10.41H5.52275V18.5108C4.62525 18.6813 3.966 18.7495 3.25025 18.7495C1.11375 18.7495 0 17.7835 0 15.931C0 14.147 1.182 12.988 3.0115 12.988C3.2955 12.988 3.5115 13.0105 3.77275 13.0788V10.41ZM3.77275 14.4875C3.56825 14.4195 3.39775 14.3968 3.182 14.3968C2.2955 14.3968 1.78425 14.9423 1.78425 15.8968C1.78425 16.8285 2.27275 17.34 3.1705 17.34C3.36375 17.34 3.523 17.3285 3.773 17.2945L3.77275 14.4875Z" fill="black"/>
<path d="M8.30679 13.1125V17.1695C8.30679 18.567 8.20454 19.2375 7.89779 19.817C7.61354 20.3742 7.23854 20.7262 6.46579 21.1127L4.84079 20.34C5.61354 19.9763 5.98829 19.6583 6.22704 19.1695C6.47704 18.6695 6.55704 18.09 6.55704 16.567V13.1125H8.30679ZM6.55679 10.4193H8.30679V12.2148H6.55679V10.4193ZM9.36404 13.5103C10.1365 13.1468 10.8753 12.9878 11.6823 12.9878C12.5798 12.9878 13.1708 13.2263 13.4323 13.6923C13.5798 13.9535 13.6253 14.2945 13.6253 15.0218V18.5785C12.8413 18.6923 11.8528 18.7717 11.1253 18.7717C9.65954 18.7717 9.00029 18.2603 9.00029 17.124C9.00029 15.8965 9.87529 15.3285 12.023 15.1465V14.7603C12.023 14.442 11.864 14.3285 11.4208 14.3285C10.7733 14.3285 10.0458 14.5103 9.36379 14.8628L9.36404 13.5103ZM12.1025 16.2945C10.9435 16.408 10.5685 16.59 10.5685 17.0445C10.5685 17.3853 10.7845 17.5445 11.2618 17.5445C11.523 17.5445 11.7618 17.522 12.1025 17.465V16.2945ZM14.478 13.3853C15.512 13.1128 16.3643 12.9878 17.228 12.9878C18.1258 12.9878 18.7735 13.192 19.16 13.59C19.5238 13.965 19.6373 14.3738 19.6373 15.249V18.6807H17.8873V15.3175C17.8873 14.647 17.6598 14.397 17.0348 14.397C16.7963 14.397 16.5805 14.4195 16.228 14.522V18.681H14.478V13.3853ZM20.3173 19.6353C20.931 19.9535 21.5445 20.1012 22.1923 20.1012C23.3398 20.1012 23.8285 19.6353 23.8285 18.5215V18.4875C23.4878 18.658 23.1468 18.7262 22.6923 18.7262C21.158 18.7262 20.1808 17.7147 20.1808 16.1125C20.1808 14.1237 21.624 12.9988 24.1808 12.9988C24.9308 12.9988 25.624 13.0783 26.465 13.2488L25.8658 14.5113C25.3998 14.4203 25.8283 14.4988 25.4763 14.4648V14.6468L25.4988 15.3853L25.5103 16.3398C25.5218 16.5785 25.5218 16.8173 25.533 17.0558V17.5333C25.533 19.0333 25.408 19.7375 25.033 20.317C24.4875 21.1695 23.5445 21.59 22.2035 21.59C21.5215 21.59 20.931 21.4875 20.317 21.249V19.635L20.3173 19.6353ZM23.7948 14.4078H23.6128C23.272 14.3965 22.8743 14.4873 22.6013 14.6578C22.181 14.8965 21.965 15.3283 21.965 15.942C21.965 16.817 22.3968 17.317 23.1695 17.317C23.4083 17.317 23.6015 17.2715 23.8285 17.2035V16.601C23.8285 16.3968 23.8173 16.1693 23.8173 15.9308L23.806 15.124L23.7945 14.5443V14.408L23.7948 14.4078ZM29.1818 12.965C30.9318 12.965 32 14.0673 32 15.8513C32 17.681 30.8865 18.8288 29.1135 18.8288C27.3635 18.8288 26.284 17.7263 26.284 15.9538C26.284 14.1125 27.3978 12.965 29.1818 12.965ZM29.1475 17.4195C29.818 17.4195 30.216 16.8625 30.216 15.8968C30.216 14.9423 29.8295 14.374 29.1593 14.374C28.4658 14.374 28.068 14.931 28.068 15.8965C28.068 16.8628 28.4658 17.4195 29.1475 17.4195Z" fill="black"/>
</g>
<defs>
<clipPath id="clip0_2_119">
<rect width="32" height="32" fill="white"/>
</clipPath>
</defs>
</svg>
