<svg width="32" height="32" viewBox="0 0 32 32" fill="none" xmlns="http://www.w3.org/2000/svg">
<path d="M7.55 11.475H13.575V11.95H8.1V15.55H13.25V16.025H8.1V19.975H13.65V20.45H7.55V11.475ZM14.125 11.475H14.775L17.625 15.425L20.5 11.475L24.45 6.475L17.95 15.85L21.3 20.45H20.625L17.6 16.25L14.55 20.45H13.9L17.275 15.85L14.125 11.475ZM21.55 11.95V11.475H28.425V11.95H25.25V20.45H24.7V11.95H21.55ZM0 11.475H0.675L10.225 25.675L6.275 20.45L0.575 12.15L0.55 20.45H0V11.475ZM28.375 19.825C28.5 19.825 28.575 19.75 28.575 19.625C28.575 19.5 28.5 19.425 28.375 19.425C28.25 19.425 28.175 19.5 28.175 19.625C28.175 19.75 28.275 19.825 28.375 19.825ZM28.925 19.3C28.925 19.625 29.175 19.85 29.525 19.85C29.9 19.85 30.125 19.625 30.125 19.225V17.85H29.825V19.225C29.825 19.45 29.725 19.55 29.525 19.55C29.35 19.55 29.225 19.45 29.225 19.275H28.925V19.3ZM30.5 19.275C30.525 19.625 30.8 19.85 31.25 19.85C31.7 19.85 32 19.625 32 19.25C32 18.95 31.825 18.8 31.45 18.7L31.225 18.65C30.975 18.6 30.875 18.5 30.875 18.375C30.875 18.2 31.025 18.075 31.275 18.075C31.5 18.075 31.65 18.175 31.675 18.375H31.975C31.95 18.05 31.675 17.825 31.275 17.825C30.85 17.825 30.575 18.05 30.575 18.4C30.575 18.675 30.725 18.85 31.075 18.925L31.325 18.975C31.575 19.025 31.7 19.125 31.7 19.275C31.7 19.45 31.525 19.575 31.275 19.575C31.025 19.575 30.825 19.45 30.8 19.275H30.5Z" fill="black"/>
</svg>
