<svg width="32" height="32" viewBox="0 0 32 32" fill="none" xmlns="http://www.w3.org/2000/svg">
<g clip-path="url(#clip0_92_634)">
<path d="M17.9521 26.44H29.8481C30.2254 26.44 30.5974 26.3427 30.9241 26.16C31.2495 25.9786 31.5213 25.7146 31.7121 25.3947C31.9004 25.079 31.9999 24.7183 32.0001 24.3507C31.9994 23.9834 31.8994 23.6231 31.7108 23.308L23.7228 9.88533C23.5317 9.56591 23.26 9.30241 22.9348 9.12133C22.606 8.93752 22.2355 8.84112 21.8588 8.84133C21.4814 8.84133 21.1094 8.93866 20.7828 9.12133C20.4581 9.3026 20.1868 9.56608 19.9961 9.88533L17.9508 13.32L13.9601 6.604C13.769 6.28461 13.4973 6.02113 13.1721 5.84C12.8433 5.65624 12.4728 5.55984 12.0961 5.56C11.7174 5.56 11.3468 5.65733 11.0201 5.84C10.695 6.02113 10.4232 6.28461 10.2321 6.604L0.288113 23.308C0.09957 23.6232 -0.000391098 23.9834 -0.0012207 24.3507C-0.0012207 24.7173 0.097446 25.0773 0.286779 25.3947C0.477274 25.7144 0.748589 25.9784 1.07345 26.16C1.40145 26.3427 1.77345 26.44 2.15078 26.44H9.61745C12.5774 26.44 14.7588 25.1787 16.2601 22.72L19.9041 16.596L21.8561 13.32L27.7161 23.1627H19.9041L17.9521 26.44ZM9.49745 23.16L4.28678 23.1573L12.0974 10.0347L15.9948 16.596L13.3854 20.9827C12.3881 22.5773 11.2561 23.1587 9.49745 23.1587" fill="black"/>
</g>
<defs>
<clipPath id="clip0_92_634">
<rect width="32" height="32" fill="white"/>
</clipPath>
</defs>
</svg>
