<svg width="32" height="32" viewBox="0 0 32 32" fill="none" xmlns="http://www.w3.org/2000/svg">
<path d="M25 11.6L24.1 11.3C24.1 11.1 24.2 10.9 24.2 10.7C24.9 7.4 24.4 4.7 22.9 3.8C21.4 3 19 3.8 16.6 5.9C16.4 6.1 16.1 6.3 15.9 6.5C15.7 6.4 15.6 6.2 15.4 6.1C13 3.9 10.5 3 9 3.9C7.5 4.7 7.1 7.3 7.7 10.4C7.8 10.7 7.8 11 7.9 11.3C7.5 11.4 7.2 11.5 6.9 11.6C3.9 12.6 2 14.3 2 15.9C2 17.6 4 19.4 7.1 20.4C7.3 20.5 7.6 20.6 7.9 20.6C7.8 20.9 7.7 21.3 7.7 21.6C7.1 24.7 7.6 27.1 9 28C10.5 28.9 13 28 15.5 25.8C15.7 25.6 15.9 25.4 16.1 25.3C16.3 25.5 16.6 25.8 16.9 26C19.3 28.1 21.6 28.9 23.1 28C24.6 27.1 25.1 24.5 24.5 21.3C24.5 21.1 24.4 20.8 24.3 20.5C24.5 20.4 24.7 20.4 24.8 20.3C28 19.2 30.1 17.5 30.1 15.8C30 14.3 28 12.7 25 11.6ZM17.5 6.9C19.6 5.1 21.5 4.4 22.4 4.9C23.3 5.4 23.7 7.6 23.1 10.5C23.1 10.7 23 10.9 23 11.1C21.8 10.8 20.5 10.6 19.3 10.5C18.6 9.5 17.8 8.5 16.9 7.5L17.5 6.9ZM10.3 17.4C10.6 17.9 10.8 18.4 11.1 18.9C11.4 19.4 11.7 19.9 12 20.3C11.1 20.2 10.3 20.1 9.4 19.9C9.6 19.1 9.9 18.3 10.3 17.4ZM10.3 14.6C9.9 13.8 9.7 13 9.4 12.2C10.2 12 11.1 11.9 11.9 11.8C11.6 12.3 11.3 12.7 11 13.2C10.8 13.6 10.5 14.1 10.3 14.6ZM10.9 16C11.3 15.2 11.7 14.5 12.1 13.7C12.5 13 13 12.2 13.5 11.5C14.3 11.4 15.2 11.4 16.1 11.4C17 11.4 17.8 11.4 18.7 11.5C19.2 12.2 19.6 12.9 20 13.7C20.4 14.4 20.8 15.2 21.2 16C20.8 16.8 20.4 17.5 20 18.3C19.6 19 19.1 19.8 18.7 20.5C17.9 20.6 17 20.6 16.1 20.6C15.2 20.6 14.4 20.6 13.6 20.5C13.1 19.8 12.7 19.1 12.2 18.3C11.7 17.5 11.3 16.8 10.9 16ZM20.9 18.9C21.2 18.4 21.5 17.9 21.7 17.4C22.1 18.2 22.4 19 22.6 19.9C21.7 20.1 20.9 20.2 20 20.3C20.4 19.8 20.7 19.3 20.9 18.9ZM21.7 14.6C21.4 14.1 21.2 13.6 20.9 13.1C20.6 12.6 20.3 12.2 20.1 11.7C21 11.8 21.8 12 22.7 12.1C22.4 13 22.1 13.8 21.7 14.6ZM16 8.3C16.6 8.9 17.1 9.6 17.6 10.3C16.5 10.2 15.4 10.2 14.3 10.3C14.9 9.6 15.5 8.9 16 8.3ZM9.6 4.9C10.5 4.4 12.6 5.1 14.8 7.1L15.2 7.5C14.3 8.4 13.5 9.4 12.8 10.5C11.5 10.6 10.3 10.8 9.1 11.1C9 10.8 9 10.5 8.9 10.2C8.3 7.5 8.7 5.4 9.6 4.9ZM8.2 19.6C8 19.5 7.7 19.5 7.5 19.4C6.1 18.9 5 18.3 4.2 17.7C3.5 17.1 3.2 16.5 3.2 16C3.2 15 4.7 13.7 7.3 12.8C7.6 12.7 7.9 12.6 8.3 12.5C8.6 13.7 9 14.9 9.6 16C9 17.2 8.6 18.4 8.2 19.6ZM14.7 25.1C13.6 26.1 12.5 26.7 11.6 27.1C10.7 27.4 10.1 27.4 9.6 27.2C8.7 26.7 8.3 24.7 8.8 22.1C8.9 21.7 9 21.4 9 21C10.2 21.3 11.5 21.5 12.8 21.5C13.5 22.5 14.3 23.5 15.2 24.5C15 24.7 14.9 24.9 14.7 25.1ZM16 23.7C15.4 23.1 14.9 22.4 14.3 21.7H17.6C17.2 22.4 16.6 23.1 16 23.7ZM23.3 25.4C23.1 26.3 22.8 26.9 22.4 27.1C21.5 27.6 19.6 26.9 17.6 25.2C17.4 25 17.1 24.8 16.9 24.6C17.7 23.7 18.5 22.7 19.2 21.6C20.5 21.5 21.7 21.3 23 21C23.1 21.2 23.1 21.5 23.2 21.7C23.5 23.1 23.5 24.4 23.3 25.4ZM24.3 19.4C24.1 19.4 24 19.5 23.8 19.5C23.4 18.3 22.9 17.1 22.4 15.9C22.9 14.8 23.4 13.6 23.8 12.4C24.1 12.5 24.4 12.6 24.6 12.7C27.2 13.6 28.8 14.9 28.8 15.9C28.8 17.1 27.1 18.5 24.3 19.4Z" fill="black"/>
<path d="M16 18.5C16.5 18.5 17 18.4 17.4 18.1C17.8 17.8 18.1 17.4 18.3 17C18.5 16.5 18.5 16 18.4 15.5C18.3 15 18.1 14.6 17.7 14.2C17.4 13.8 16.9 13.6 16.4 13.5C15.9 13.4 15.4 13.5 14.9 13.6C14.4 13.8 14 14.1 13.8 14.5C13.5 14.9 13.4 15.4 13.4 15.9C13.4 16.2 13.5 16.6 13.6 16.9C13.7 17.2 13.9 17.5 14.1 17.7C14.3 17.9 14.6 18.1 14.9 18.2C15.3 18.4 15.7 18.5 16 18.5Z" fill="black"/>
</svg>
