<svg width="32" height="32" viewBox="0 0 32 32" fill="none" xmlns="http://www.w3.org/2000/svg">
<path d="M15.145 5.014C13.731 4.939 12.142 5.156 10.588 5.695C8.11799 6.552 5.44599 7.9 3.52499 9.656C1.24299 11.746 0.876994 13.566 1.02699 14.326C1.56099 17.026 5.36699 18.786 6.89099 20.088C6.81599 20.128 6.74599 20.164 6.67999 20.201C5.91599 20.572 3.08099 22.03 2.35499 23.598C1.53499 25.376 2.49099 26.648 3.11899 26.822C5.07899 27.354 7.01699 26.425 8.09399 24.854C9.17199 23.282 9.04199 21.23 8.54399 20.294C8.53999 20.281 8.52999 20.272 8.52499 20.258C8.72199 20.143 8.92299 20.028 9.12499 19.912C9.51399 19.687 9.89399 19.482 10.227 19.302C10.039 19.798 9.90299 20.395 9.83199 21.256C9.74799 22.264 10.174 23.568 10.727 24.082C10.971 24.307 11.265 24.312 11.447 24.312C12.094 24.312 12.385 23.79 12.707 23.166C13.105 22.405 13.457 21.521 13.457 21.521C13.457 21.521 13.017 23.912 14.223 23.912C14.663 23.912 15.103 23.358 15.301 23.074V23.078C15.301 23.078 15.308 23.06 15.332 23.023C15.379 22.954 15.402 22.914 15.402 22.914V22.9C15.58 22.602 15.971 21.92 16.557 20.793C17.316 19.336 18.041 17.516 18.041 17.516C18.111 17.916 18.208 18.31 18.332 18.697C18.463 19.132 18.741 19.609 18.961 20.072C18.783 20.31 18.674 20.447 18.674 20.447C18.674 20.451 18.677 20.455 18.68 20.457C18.539 20.64 18.379 20.837 18.215 21.029C17.615 21.726 16.902 22.525 16.809 22.754C16.696 23.024 16.724 23.224 16.939 23.381C17.099 23.5 17.382 23.518 17.676 23.496C18.0544 23.4766 18.4268 23.3927 18.777 23.248C19.1131 23.1311 19.4315 22.9682 19.723 22.764C20.309 22.342 20.666 21.736 20.633 20.939C20.613 20.499 20.467 20.059 20.289 19.646C20.341 19.573 20.399 19.496 20.449 19.418C21.0586 18.53 21.6081 17.6023 22.094 16.641C22.164 17.041 22.261 17.435 22.384 17.822C22.498 18.193 22.718 18.601 22.92 19C22.049 19.692 21.508 20.494 21.32 21.021C20.973 21.997 21.247 22.436 21.758 22.537C21.988 22.583 22.315 22.479 22.558 22.379C22.921 22.261 23.261 22.089 23.57 21.869C24.156 21.447 24.724 20.857 24.686 20.055C24.672 19.693 24.57 19.33 24.434 18.982C25.17 18.68 26.124 18.515 27.344 18.652C29.954 18.95 30.465 20.545 30.367 21.209C30.269 21.874 29.72 22.245 29.537 22.355C29.354 22.465 29.299 22.507 29.313 22.59C29.336 22.709 29.419 22.704 29.574 22.676C29.79 22.639 30.942 22.136 30.994 20.902C31.069 19.345 29.539 17.632 26.826 17.645H26.822C25.881 17.645 24.952 17.856 24.107 18.264C23.83 17.719 23.544 17.242 23.498 16.884C23.442 16.468 23.382 16.221 23.448 15.727C23.513 15.232 23.808 14.53 23.803 14.479C23.798 14.429 23.737 14.177 23.133 14.172C22.529 14.167 22.007 14.286 21.947 14.442C21.84 14.726 21.757 15.018 21.699 15.316C21.591 15.852 20.49 17.769 19.867 18.768C19.661 18.378 19.488 18.035 19.451 17.76C19.395 17.343 19.333 17.096 19.398 16.602C19.464 16.107 19.761 15.405 19.756 15.354C19.751 15.304 19.69 15.052 19.086 15.047C18.482 15.042 17.959 15.161 17.898 15.317C17.838 15.472 17.771 15.838 17.65 16.191C17.528 16.544 16.062 19.735 15.678 20.564C15.5236 20.8982 15.3605 21.2283 15.189 21.554C15.17 21.592 15.157 21.614 15.149 21.633C15.162 21.61 15.172 21.587 15.172 21.596C15.069 21.793 15.008 21.902 15.008 21.902V21.906C14.928 22.053 14.838 22.188 14.797 22.188C14.769 22.188 14.707 21.802 14.811 21.275C15.031 20.166 15.551 18.443 15.547 18.383C15.542 18.351 15.643 18.053 15.203 17.893C14.776 17.742 14.623 17.994 14.586 17.994C14.548 17.994 14.52 18.086 14.52 18.086C14.52 18.086 14.991 16.143 13.61 16.143C12.746 16.143 11.546 17.068 10.957 17.906C10.587 18.103 9.78499 18.53 8.94099 18.984L7.97299 19.506C7.94999 19.483 7.92999 19.46 7.90599 19.437C6.22799 17.687 3.13099 16.449 3.26199 14.097C3.30899 13.241 3.61499 10.992 9.21899 8.26C13.813 6.024 17.485 6.637 18.117 8.002C19.027 9.95 16.153 13.576 11.383 14.098C9.56499 14.295 8.72699 13.527 8.48799 13.27C8.23999 13 8.20099 12.985 8.10799 13.035C7.95199 13.117 8.05099 13.356 8.10799 13.498C8.24799 13.86 8.87499 14.427 9.87299 14.748C10.75 15.028 12.763 15.263 15.342 14.288C18.238 13.196 20.45 10.232 19.789 7.689C19.369 6.074 17.5 5.138 15.145 5.014ZM13.607 17.289C13.681 17.294 13.735 17.322 13.766 17.373C13.93 17.644 13.196 19.639 13.008 20.088C12.708 20.808 12.074 22.642 11.689 22.545C11.361 22.463 11.159 21.065 11.623 19.689C11.857 18.997 12.354 18.173 12.65 17.852C13.005 17.463 13.388 17.272 13.607 17.289ZM23.347 19.551C23.403 19.711 23.432 19.879 23.436 20.047C23.431 21.079 22.676 21.463 22.223 21.623C22.129 21.559 22.141 21.343 22.455 20.673C22.577 20.413 22.859 19.973 23.347 19.551ZM7.60499 20.688C7.99399 22.081 7.61899 23.309 6.70999 24.278C5.84799 25.198 4.63799 25.547 4.11799 25.254C3.55999 24.937 3.78099 23.58 4.84499 22.598C5.49199 22.002 6.32699 21.452 6.87999 21.113C7.00699 21.04 7.18799 20.93 7.41299 20.797C7.4314 20.7856 7.45043 20.7753 7.46999 20.766C7.51199 20.739 7.55799 20.716 7.60499 20.688ZM19.382 20.848C19.382 20.871 19.388 20.895 19.388 20.922C19.382 21.742 18.574 22.296 18.208 22.516H18.212V22.518C18.085 22.582 17.967 22.622 17.912 22.59C17.869 22.567 17.964 22.48 17.964 22.48C17.964 22.48 18.615 21.796 18.872 21.484C19.022 21.301 19.195 21.086 19.382 20.848Z" fill="black"/>
</svg>
