<svg width="32" height="32" viewBox="0 0 32 32" fill="none" xmlns="http://www.w3.org/2000/svg">
<path d="M24.6667 12.68C23.6667 12.3356 22.7841 11.7164 22.12 10.8933C21.3881 9.97631 20.4561 9.23885 19.3953 8.73737C18.3346 8.23588 17.1732 7.98366 16 8C14.4218 7.88823 12.8594 8.37499 11.624 9.36334C10.3886 10.3517 9.57072 11.7691 9.33333 13.3333C9.8009 12.551 10.5046 11.9372 11.3432 11.5802C12.1818 11.2232 13.112 11.1414 14 11.3467C14.9983 11.7011 15.8794 12.3239 16.5467 13.1467C17.2826 14.0564 18.2164 14.7862 19.2769 15.2807C20.3374 15.7751 21.4967 16.0211 22.6667 16C24.2449 16.1118 25.8072 15.625 27.0427 14.6367C28.2781 13.6483 29.0959 12.2309 29.3333 10.6667C28.8743 11.4584 28.1728 12.0815 27.3325 12.444C26.4922 12.8065 25.5576 12.8893 24.6667 12.68ZM7.33333 19.32C8.33326 19.6644 9.21589 20.2836 9.88 21.1067C10.6119 22.0237 11.5439 22.7612 12.6047 23.2626C13.6654 23.7641 14.8268 24.0163 16 24C17.5782 24.1118 19.1406 23.625 20.376 22.6367C21.6114 21.6483 22.4293 20.2309 22.6667 18.6667C22.1991 19.449 21.4954 20.0628 20.6568 20.4198C19.8182 20.7768 18.888 20.8586 18 20.6533C17.0017 20.2989 16.1206 19.6761 15.4533 18.8533C14.7154 17.9459 13.7813 17.2176 12.7212 16.7234C11.6612 16.2292 10.5028 15.9818 9.33333 16C7.75515 15.8882 6.19278 16.375 4.95734 17.3633C3.7219 18.3517 2.90405 19.7691 2.66666 21.3333C3.12574 20.5416 3.82721 19.9185 4.66751 19.556C5.50781 19.1935 6.44241 19.1107 7.33333 19.32Z" fill="black"/>
</svg>
