<svg width="32" height="32" viewBox="0 0 32 32" fill="none" xmlns="http://www.w3.org/2000/svg">
<path d="M16.0282 0L10.9 2.56L16.2425 5.2535L21.2135 2.6L16.0282 0ZM8.40825 3.80425L2.5385 6.73175L8.03075 9.48925L13.753 6.5015L8.40825 3.80425ZM23.692 3.84375L18.6835 6.4845L24.3 9.318L29.4515 6.732L23.692 3.84375ZM16.205 7.73925L10.4955 10.728L15.9955 13.4888L21.8105 10.5697L16.205 7.73925ZM1.02875 8.33V24.5742L4.789 26.5903V18.0952C4.789 18.0952 9.90825 27.9323 9.961 28.0405C10.0142 28.148 10.5252 29.1828 11.0757 29.5473C11.8057 30.0323 14.9405 31.9172 14.9405 31.9172L14.9425 15.4292L10.713 13.3013V22.4928C10.713 22.4928 5.538 11.4843 5.06 10.4945C4.9985 10.3665 4.74425 10.227 4.67975 10.1923C3.74675 9.7055 1.02875 8.33 1.02875 8.33ZM30.9712 8.562L25.6035 11.2305L25.608 18.2475L30.9712 15.5225V8.562ZM23.4247 12.3145L17.16 15.4292V22.435L23.432 19.3175L23.4247 12.3145ZM30.9712 18.0058L25.6095 20.7115L25.6137 27.7808L30.9712 25.1082V18.0058ZM23.4345 21.7882L17.1595 24.925V32L23.4405 28.8657L23.4345 21.7882Z" fill="black"/>
</svg>
