<svg width="32" height="32" viewBox="0 0 32 32" fill="none" xmlns="http://www.w3.org/2000/svg">
<path d="M18.3199 5.63999C17.1999 4.30666 16.2266 2.97333 16.0399 2.67999H15.9999C15.8133 2.95999 14.8399 4.30666 13.7199 5.63999C4.11993 17.8933 15.2399 26.16 15.2399 26.16L15.3333 26.2267C15.4133 27.4933 15.6266 29.3333 15.6266 29.3333H16.4533C16.4533 29.3333 16.6533 27.5067 16.7333 26.2267L16.8266 26.1467C16.8266 26.1467 27.9199 17.8933 18.3199 5.63999ZM15.9999 25.9733C15.7663 25.7814 15.5519 25.567 15.3599 25.3333L15.9999 12L16.5999 25.3333C16.4201 25.5647 16.2192 25.7789 15.9999 25.9733Z" fill="black"/>
</svg>
