<svg width="33" height="32" viewBox="0 0 33 32" fill="none" xmlns="http://www.w3.org/2000/svg">
<g clip-path="url(#clip0_2_195)">
<path fill-rule="evenodd" clip-rule="evenodd" d="M7.91495 5.3868C7.61419 5.38153 7.31398 5.41468 7.02162 5.48546V5.53613H7.07095C7.24429 5.89213 7.55095 6.1228 7.76562 6.42946L8.26162 7.4708L8.31229 7.42146C8.61895 7.20546 8.76029 6.8588 8.75895 6.32946C8.63495 6.20013 8.61629 6.03746 8.50962 5.8828C8.36829 5.67746 8.09362 5.56013 7.91495 5.3868ZM31.9376 30.8495C32.1709 31.0215 32.3283 31.2881 32.6323 31.3961V31.3455C32.4723 31.1428 32.4323 30.8628 32.2856 30.6508C32.0695 30.4367 31.8544 30.2216 31.6403 30.0055C30.9924 29.1674 30.2225 28.4312 29.3563 27.8215C28.6789 27.3348 27.1576 26.6761 26.8749 25.8868L26.8243 25.8361C27.3056 25.7828 27.8696 25.6081 28.3136 25.4895C29.0603 25.2895 29.7269 25.3401 30.4976 25.1428C30.8456 25.0415 31.1923 24.9428 31.5403 24.8441V24.6441C31.1509 24.2441 30.8736 23.7161 30.4483 23.3548C29.3363 22.4081 28.1243 21.4615 26.8749 20.6748C26.1816 20.2361 25.3256 19.9535 24.5909 19.5815C24.3443 19.4575 23.9109 19.3921 23.7483 19.1855C23.3616 18.6921 23.1523 18.0695 22.8549 17.4975C22.2323 16.2975 21.6189 14.9868 21.0683 13.7241C20.691 12.8641 20.4456 12.0161 19.975 11.2441C17.7216 7.53746 15.295 5.30146 11.5376 3.1028C10.7376 2.63613 9.77495 2.4508 8.75895 2.20946L7.12029 2.1108C6.78695 1.9708 6.44029 1.56413 6.12829 1.36546C4.88295 0.578798 1.68829 -1.13187 0.768287 1.11746C0.18562 2.53746 1.63762 3.9228 2.15762 4.64146C2.52162 5.1468 2.98829 5.71213 3.24962 6.28013C3.42029 6.65346 3.44962 7.0268 3.59629 7.42146C3.95762 8.3948 4.27095 9.4508 4.73762 10.3495C4.97495 10.8041 5.23495 11.2828 5.53229 11.6895C5.71629 11.9388 6.02829 12.0495 6.07762 12.4348C5.77095 12.8628 5.75495 13.5281 5.58295 14.0721C4.80695 16.5188 5.09895 19.5588 6.22829 21.3695C6.57362 21.9241 7.38829 23.1161 8.50962 22.6588C9.49095 22.2588 9.27229 21.0215 9.55229 19.9295C9.61495 19.6815 9.57762 19.4988 9.70162 19.3335V19.3828L10.595 21.1695C11.2563 22.2348 12.4296 23.3481 13.4243 24.0988C13.939 24.4881 14.3443 25.1615 15.0123 25.3895V25.3388H14.963C14.8323 25.1388 14.6296 25.0548 14.467 24.8921C14.0541 24.4913 13.6721 24.0599 13.3243 23.6015C12.4203 22.3748 11.6216 21.0308 10.8936 19.6321C10.5456 18.9628 10.243 18.2268 9.94962 17.5468C9.83629 17.2841 9.83762 16.8881 9.60295 16.7521C9.28162 17.2508 8.80829 17.6535 8.56029 18.2415C8.16295 19.1815 8.11095 20.3281 7.96429 21.5175C7.87762 21.5481 7.91629 21.5268 7.86429 21.5668C7.17362 21.4001 6.93095 20.6881 6.67362 20.0775C6.02429 18.5348 5.90295 16.0481 6.47495 14.2708C6.62295 13.8108 7.29229 12.3628 7.02162 11.9375C6.89095 11.5135 6.46562 11.2695 6.22695 10.9455C5.91489 10.5105 5.64858 10.0445 5.43229 9.5548C4.90162 8.35213 4.65229 7.00013 4.09229 5.7828C3.82562 5.20146 3.37229 4.61346 3.00029 4.09613C2.58962 3.5228 2.12829 3.10146 1.80962 2.40813C1.69629 2.16146 1.54162 1.76813 1.70962 1.5148C1.76295 1.34413 1.83895 1.27213 2.00829 1.21746C2.29629 0.994798 3.09762 1.2908 3.39762 1.4148C4.19362 1.74546 4.85762 2.06013 5.53095 2.50813C5.85495 2.72146 6.18295 3.13746 6.57362 3.25213H7.02029C7.72029 3.41213 8.50295 3.30146 9.15495 3.50013C10.3083 3.8508 11.3416 4.39613 12.2816 4.98946C15.143 6.79613 17.4816 9.3668 19.0816 12.4348C19.339 12.9281 19.451 13.4001 19.6776 13.9241C20.135 14.9801 20.711 16.0668 21.1656 17.1001C21.6189 18.1308 22.063 19.1708 22.7043 20.0281C23.0416 20.4788 24.3456 20.7215 24.9389 20.9721C25.3536 21.1468 26.0336 21.3308 26.427 21.5668C27.1789 22.0201 27.9069 22.5601 28.6109 23.0561C28.9629 23.3055 30.0469 23.8495 30.1003 24.2961C28.3536 24.2508 27.0203 24.4121 25.8816 24.8935C25.5576 25.0295 25.0416 25.0335 24.9883 25.4388C25.1656 25.6255 25.1936 25.9055 25.3349 26.1335C25.6069 26.5735 26.0669 27.1641 26.4763 27.4735C26.9256 27.8121 27.3869 28.1735 27.8669 28.4668C28.7203 28.9868 29.6749 29.2855 30.4963 29.8068C30.9829 30.1148 31.4656 30.5015 31.9376 30.8495Z" fill="black"/>
</g>
<defs>
<clipPath id="clip0_2_195">
<rect width="32" height="32" fill="white" transform="translate(0.632385)"/>
</clipPath>
</defs>
</svg>
