<svg width="33" height="32" viewBox="0 0 33 32" fill="none" xmlns="http://www.w3.org/2000/svg">
<g clip-path="url(#clip0_2_197)">
<path d="M23.4714 0C22.227 0.00946891 20.9897 0.189821 19.7944 0.536L19.7114 0.563C18.9593 0.432704 18.1985 0.359495 17.4354 0.344C15.8624 0.317 14.5124 0.697 13.4244 1.333C12.3514 0.964 10.1274 0.317 7.7834 0.448C6.1544 0.536 4.3724 1.031 3.0484 2.427C1.7364 3.818 1.0394 5.974 1.1844 8.912C1.2254 9.719 1.4554 11.036 1.8404 12.749C2.2204 14.458 2.7574 16.458 3.4294 18.286C4.1014 20.109 4.8344 21.749 5.9814 22.863C6.5534 23.42 7.3454 23.895 8.2774 23.854C8.9294 23.827 9.5174 23.541 10.0284 23.119C10.2774 23.447 10.5444 23.587 10.7834 23.718C11.0914 23.885 11.3824 23.999 11.6904 24.073C12.2424 24.213 13.1854 24.396 14.2894 24.208C14.6914 24.1357 15.0832 24.0151 15.4564 23.849L15.5034 25.156C15.5604 26.536 15.5984 27.812 16.0084 28.932C16.0764 29.115 16.2594 30.052 16.9774 30.885C17.7014 31.718 19.1064 32.234 20.7164 31.89C21.8474 31.65 23.2894 31.213 24.2484 29.849C25.1964 28.505 25.6234 26.573 25.7074 23.437C25.7274 23.265 25.7544 23.125 25.7794 22.989L26.0034 23.01H26.0304C27.2384 23.062 28.5514 22.89 29.6504 22.379C30.6184 21.931 31.3534 21.478 31.8894 20.671C32.0204 20.472 32.1704 20.228 32.2084 19.811C32.2494 19.4 32.0094 18.748 31.6134 18.447C30.8224 17.843 30.3224 18.072 29.7854 18.187C29.2595 18.3003 28.7242 18.3646 28.1864 18.379C29.7274 15.786 30.8314 13.026 31.4624 10.587C31.8374 9.144 32.0464 7.816 32.0614 6.655C32.0824 5.494 31.9844 4.468 31.2904 3.578C29.1134 0.802 26.0554 0.03 23.6914 0.005H23.4724L23.4714 0ZM23.4084 0.855C25.6434 0.834 28.5014 1.459 30.5534 4.083C31.0174 4.672 31.1534 5.531 31.1374 6.594C31.1214 7.657 30.9244 8.922 30.5644 10.313C29.8724 13.012 28.5534 16.146 26.7054 18.965C26.769 19.0129 26.839 19.0516 26.9134 19.08C27.2984 19.241 28.1784 19.376 29.9384 19.017C30.3814 18.922 30.7054 18.861 31.0434 19.116C31.1254 19.1852 31.1902 19.2725 31.2326 19.3711C31.2749 19.4698 31.2937 19.5769 31.2874 19.684C31.2692 19.8464 31.2081 20.001 31.1104 20.132C30.7714 20.641 30.1014 21.127 29.2414 21.528C28.4814 21.881 27.3864 22.064 26.4244 22.075C25.9354 22.08 25.4874 22.043 25.1054 21.923L25.0854 21.919C24.9384 23.33 24.6014 26.122 24.3814 27.392C24.2054 28.417 23.8974 29.236 23.3094 29.845C22.7204 30.46 21.8924 30.824 20.7724 31.064C19.3874 31.361 18.3814 31.043 17.7314 30.496C17.0814 29.949 16.7834 29.22 16.6064 28.777C16.4824 28.47 16.4194 28.074 16.3574 27.542C16.2893 26.9068 16.244 26.2694 16.2214 25.631C16.1804 24.511 16.1644 23.391 16.1804 22.266C15.6026 22.7958 14.8848 23.1484 14.1124 23.282C13.1914 23.438 12.3734 23.282 11.8844 23.162C11.6432 23.1005 11.4104 23.0095 11.1914 22.891C10.9624 22.771 10.7484 22.636 10.6034 22.364C10.5199 22.2082 10.494 22.028 10.5304 21.855C10.5736 21.6793 10.6747 21.5233 10.8174 21.412C11.0824 21.197 11.4324 21.079 11.9574 20.969C12.9164 20.77 13.2544 20.636 13.4574 20.473C13.6294 20.338 13.8284 20.057 14.1704 19.645C14.1704 19.63 14.1704 19.609 14.1654 19.593C13.5457 19.5741 12.9391 19.4101 12.3944 19.114C12.1974 19.322 11.1704 20.406 9.9264 21.906C9.4054 22.53 8.8274 22.89 8.2134 22.917C7.6044 22.942 7.0504 22.636 6.5824 22.182C5.6454 21.27 4.8944 19.702 4.2434 17.931C3.5924 16.16 3.0664 14.187 2.6864 12.51C2.3114 10.827 2.0874 9.473 2.0554 8.822C1.9154 6.046 2.5664 4.177 3.6804 2.994C4.7944 1.811 6.3214 1.369 7.8114 1.281C10.4834 1.13 13.0244 2.062 13.5354 2.26C14.5244 1.588 15.8004 1.172 17.3944 1.197C18.1498 1.20811 18.9014 1.30609 19.6344 1.489L19.6614 1.473C19.9839 1.36131 20.3124 1.26783 20.6454 1.193C21.5505 0.980604 22.4759 0.86694 23.4054 0.854L23.4084 0.855ZM23.6114 1.745H23.4144C22.6544 1.754 21.8874 1.844 21.1434 2.005C22.8044 2.74 24.0594 3.869 24.9444 5.005C25.5594 5.786 26.0644 6.645 26.4494 7.562C26.6014 7.917 26.7004 8.213 26.7524 8.442C26.7834 8.557 26.7994 8.655 26.8094 8.754C26.8094 8.806 26.8144 8.859 26.7884 8.947C26.7884 8.952 26.7834 8.963 26.7834 8.968C26.8264 10.135 26.5344 10.925 26.4964 12.04C26.4714 12.848 26.6794 13.796 26.7314 14.832C26.7784 15.805 26.6594 16.873 26.0284 17.925C26.0804 17.988 26.1274 18.05 26.1794 18.118C27.8514 15.482 29.0594 12.571 29.7004 10.086C30.0444 8.747 30.2254 7.534 30.2414 6.577C30.2574 5.618 30.0804 4.92 29.8504 4.629C28.0584 2.342 25.6374 1.758 23.6104 1.744L23.6114 1.745ZM17.2204 2.088C15.6484 2.093 14.5174 2.568 13.6594 3.281C12.7724 4.021 12.1794 5.026 11.7944 6.062C11.3304 7.286 11.1694 8.473 11.1064 9.281L11.1274 9.27C11.6826 8.95911 12.2788 8.72785 12.8984 8.583C13.5654 8.426 14.2894 8.379 14.9394 8.635C15.5964 8.884 16.1324 9.483 16.3304 10.384C17.2694 14.728 16.0394 16.343 15.5864 17.561C15.4144 18.004 15.2634 18.452 15.1434 18.91C15.2004 18.899 15.2584 18.883 15.3154 18.878C15.6384 18.853 15.8874 18.957 16.0344 19.019C16.4934 19.211 16.8054 19.607 16.9774 20.06C17.0196 20.1837 17.0507 20.3108 17.0704 20.44C17.0876 20.494 17.0967 20.5503 17.0974 20.607C17.0449 22.268 17.0499 23.9303 17.1124 25.591C17.1444 26.31 17.1914 26.94 17.2484 27.44C17.3054 27.935 17.3834 28.315 17.4364 28.445C17.6074 28.872 17.8574 29.429 18.3114 29.809C18.7594 30.19 19.4044 30.44 20.5874 30.19C21.6124 29.966 22.2434 29.663 22.6644 29.226C23.0874 28.783 23.3364 28.174 23.4974 27.242C23.7424 25.841 24.2264 21.778 24.2844 21.018C24.2594 20.439 24.3414 19.997 24.5294 19.658C24.7164 19.314 25.0084 19.101 25.2644 18.986C25.3884 18.929 25.5084 18.893 25.6074 18.861C25.5026 18.7149 25.3949 18.5708 25.2844 18.429C24.9194 17.9861 24.6194 17.4935 24.3934 16.966C24.2895 16.7448 24.1747 16.5289 24.0494 16.319C23.8734 16.002 23.6494 15.6 23.4144 15.147C22.9454 14.251 22.4354 13.158 22.1694 12.095C21.9044 11.032 21.8684 9.934 22.5454 9.163C23.1444 8.475 24.2014 8.19 25.7784 8.351C25.7314 8.21 25.7064 8.09 25.6274 7.908C25.2687 7.06555 24.8011 6.27379 24.2364 5.553C22.8974 3.84 20.7254 2.141 17.3774 2.084L17.2204 2.088ZM8.3674 2.156C8.19894 2.15582 8.03052 2.16116 7.8624 2.172C6.5134 2.251 5.2424 2.64 4.3304 3.604C3.4194 4.573 2.8214 6.151 2.9504 8.771C2.9774 9.271 3.1904 10.656 3.5594 12.307C3.9304 13.959 4.4554 15.902 5.0864 17.62C5.7154 19.333 6.4774 20.828 7.2064 21.536C7.5704 21.885 7.8874 22.031 8.1744 22.021C8.4614 22.005 8.8104 21.838 9.2374 21.328C10.0123 20.393 10.8167 19.4829 11.6494 18.599C11.0588 18.0849 10.6072 17.4305 10.3359 16.696C10.0647 15.9615 9.98268 15.1705 10.0974 14.396C10.2324 13.412 10.2534 12.489 10.2324 11.76C10.2174 11.052 10.1694 10.584 10.1694 10.287V10.255L10.1644 10.246C10.1644 8.709 10.4364 7.189 10.9564 5.746C11.3314 4.75 11.8844 3.746 12.7164 2.927C11.8994 2.656 10.4454 2.251 8.8734 2.172C8.70529 2.16119 8.53587 2.15585 8.3674 2.156ZM24.8974 9.197C23.9924 9.213 23.4864 9.448 23.2164 9.749C22.8404 10.182 22.8044 10.942 23.0394 11.88C23.2724 12.817 23.7584 13.864 24.2114 14.735C24.4354 15.172 24.6544 15.563 24.8304 15.88C25.0134 16.203 25.1434 16.427 25.2214 16.625C25.2944 16.802 25.3784 16.958 25.4614 17.104C25.8104 16.364 25.8734 15.64 25.8364 14.88C25.7894 13.943 25.5714 12.984 25.6074 12.016C25.6444 10.88 25.8684 10.14 25.8844 9.265C25.5578 9.22182 25.2288 9.19911 24.8994 9.197H24.8974ZM13.9194 9.355C13.6434 9.355 13.3674 9.391 13.0964 9.454C12.5593 9.58318 12.0423 9.78469 11.5594 10.053C11.3969 10.1409 11.242 10.2423 11.0964 10.356L11.0644 10.381C11.0754 10.58 11.1114 11.048 11.1274 11.746C11.1434 12.506 11.1274 13.474 10.9824 14.522C10.6594 16.803 12.3154 18.689 14.2584 18.694C14.3734 18.225 14.5594 17.75 14.7474 17.251C15.2884 15.792 16.3514 14.73 15.4554 10.574C15.3104 9.897 15.0184 9.621 14.6164 9.465C14.3927 9.38627 14.1565 9.34932 13.9194 9.356V9.355ZM24.4764 9.625H24.5444C24.6274 9.63 24.7114 9.636 24.7834 9.656C24.8484 9.66873 24.9105 9.69349 24.9664 9.729C24.9924 9.7446 25.0147 9.76563 25.0318 9.79066C25.0489 9.81569 25.0603 9.84412 25.0654 9.874V9.885C25.0651 9.94895 25.049 10.0118 25.0184 10.068C24.9791 10.1398 24.9303 10.2061 24.8734 10.265C24.7389 10.4153 24.5567 10.5146 24.3574 10.546C24.1646 10.5707 23.9695 10.5226 23.8104 10.411C23.7474 10.3653 23.6897 10.3126 23.6384 10.254C23.5934 10.2067 23.5641 10.1466 23.5544 10.082C23.5485 10.0204 23.5672 9.95893 23.6064 9.911C23.6527 9.86368 23.7056 9.82326 23.7634 9.791C23.8924 9.718 24.0644 9.666 24.2634 9.639C24.3354 9.63 24.4084 9.624 24.4764 9.619V9.625ZM14.0484 9.849C14.1164 9.849 14.1954 9.854 14.2684 9.864C14.4764 9.896 14.6534 9.948 14.7934 10.031C14.862 10.0644 14.9225 10.1126 14.9704 10.172C15.0223 10.2347 15.0484 10.3148 15.0434 10.396C15.0292 10.473 14.9947 10.5448 14.9434 10.604C14.8886 10.6708 14.8238 10.7288 14.7514 10.776C14.5781 10.9005 14.364 10.9545 14.1524 10.927C13.938 10.8925 13.7417 10.7864 13.5954 10.626C13.534 10.56 13.4812 10.4864 13.4384 10.407C13.3917 10.3362 13.3715 10.2512 13.3814 10.167C13.4024 10.027 13.5224 9.948 13.6374 9.907C13.7684 9.864 13.9084 9.85 14.0484 9.855V9.849ZM26.1274 19.64H26.1224C25.9304 19.713 25.7694 19.74 25.6334 19.803C25.4958 19.8549 25.3826 19.9566 25.3164 20.088C25.2274 20.24 25.1604 20.511 25.1804 20.973C25.2406 21.0163 25.3079 21.0484 25.3794 21.068C25.6034 21.136 25.9884 21.183 26.4154 21.177C27.2644 21.166 28.3114 20.969 28.8684 20.708C29.3236 20.497 29.7463 20.2219 30.1234 19.891C28.2644 20.271 27.2184 20.172 26.5714 19.907C26.4125 19.8382 26.2625 19.7484 26.1274 19.64ZM15.4194 19.765H15.3924C15.3204 19.77 15.2204 19.797 15.0174 20.016C14.5534 20.536 14.3924 20.864 14.0124 21.167C13.6274 21.474 13.1324 21.636 12.1374 21.839C11.9252 21.877 11.7185 21.9415 11.5224 22.031C11.5584 22.063 11.5584 22.074 11.6154 22.099C11.7624 22.183 11.9484 22.251 12.1004 22.292C12.5274 22.396 13.2244 22.521 13.9594 22.396C14.6884 22.271 15.4484 21.921 16.1004 21.011C16.2154 20.855 16.2244 20.62 16.1314 20.37C16.0384 20.126 15.8344 19.907 15.6944 19.85C15.6068 19.8092 15.5139 19.781 15.4184 19.766L15.4194 19.765Z" fill="black"/>
</g>
<defs>
<clipPath id="clip0_2_197">
<rect width="32" height="32" fill="white" transform="translate(0.632385)"/>
</clipPath>
</defs>
</svg>
