<svg width="29" height="32" viewBox="0 0 29 32" fill="none" xmlns="http://www.w3.org/2000/svg">
<g clip-path="url(#clip0_2_193)">
<path d="M14.2838 14.5669L13.382 17.4263C12.9012 19.2013 12.9421 19.7612 13.186 20.1742C13.2462 20.2757 13.4108 20.6079 13.6408 21.4954C13.9748 22.7801 14.269 24.7196 14.2762 24.8124C14.2278 25.9981 14.254 27.2542 14.3498 28.457H2.4491C1.10347 28.457 0.00241089 27.3559 0.00241089 26.0104V3.86749C0.00241089 2.52186 1.10341 1.42061 2.4491 1.42061H20.7621C17.9573 4.39593 15.1783 10.0416 14.2838 14.5669ZM27.211 0.695988C30.567 3.68968 27.2345 10.5336 24.1757 15.3512C21.9516 16.066 19.3592 17.6447 19.3592 17.6447C19.3592 17.6447 19.5748 17.5302 20.3752 17.1945C20.9177 16.9664 22.5375 16.5813 23.524 16.3564C21.8772 18.8392 20.468 20.5771 20.468 20.5771C20.468 20.5771 17.5948 21.7447 16.7063 24.4609C17.2213 21.5636 18.0758 18.5396 19.2818 15.3171C20.3588 12.4395 23.9565 4.66855 26.6148 2.26786C23.6983 4.59243 20.5117 9.45986 18.2148 15.5265C16.8553 19.5452 16.1196 23.401 15.9998 26.5983C15.9206 28.69 16.1014 30.5038 16.5466 31.8878L16.3408 32C15.9041 30.8667 15.5033 28.8752 15.5992 24.7941C15.5848 24.612 15.5763 24.4937 15.5763 24.4937C15.5763 24.4937 15.3112 22.7082 14.9298 21.2415C14.761 20.5904 14.5687 20.0017 14.3669 19.6606C14.2629 19.4845 14.3782 18.7613 14.6684 17.6901C15.1599 18.5459 15.6902 19.4723 15.8938 20.2303C15.8938 20.2303 15.5011 18.2097 14.8567 17.0305C14.9979 16.5538 15.1667 16.0269 15.3576 15.4636C15.8329 16.2949 16.3177 17.0858 16.511 17.878C16.2995 16.8659 16.0132 15.858 15.5672 14.8588C16.3778 10.6403 18.9872 5.11655 21.7982 2.13443C23.2987 0.533363 25.3665 -0.899574 27.211 0.695988Z" fill="black"/>
</g>
<defs>
<clipPath id="clip0_2_193">
<rect width="28.6324" height="32" fill="white"/>
</clipPath>
</defs>
</svg>
