<svg width="33" height="32" viewBox="0 0 33 32" fill="none" xmlns="http://www.w3.org/2000/svg">
<path d="M14.4448 1.03749C14.3623 1.06499 13.9198 1.20749 13.4548 1.35999C10.9548 2.17749 9.18485 3.12499 8.74485 3.87499C8.57735 4.16249 8.54485 4.39499 8.64485 4.62749C8.75485 4.88999 8.95735 5.08749 9.51235 5.47999C9.77235 5.66249 10.2148 6.04499 10.5023 6.33249C11.8773 7.70499 12.5448 9.38749 12.4698 11.29C12.3848 13.43 11.3823 15.57 9.46235 17.7125C8.79235 18.46 8.10485 19.0825 6.78485 20.14C5.68485 21.02 5.08735 21.59 4.67985 22.1425C3.43235 23.8425 3.76485 25.3575 5.66985 26.6225C7.34985 27.74 10.3098 28.67 13.7973 29.175C14.9673 29.345 16.2898 29.4525 16.6073 29.405L16.8298 29.3725L17.1798 28.7425C18.9498 25.555 19.8448 22.55 19.9523 19.44C19.9998 18.0525 19.8248 16.41 19.5273 15.45C19.4723 15.2775 19.4323 15.13 19.4398 15.125C19.4448 15.12 19.9398 14.9725 20.5398 14.7925C23.6923 13.8525 26.7423 13.1125 29.2623 12.675C29.7523 12.59 30.1723 12.5025 30.1948 12.48C30.3298 12.3475 29.9373 11.735 29.2998 11.0775C26.9423 8.64499 22.7773 6.79249 17.8898 6.00499C16.9473 5.85249 16.8323 5.79749 16.4823 5.33499C15.9273 4.59999 15.4048 3.34249 14.6923 1.04249C14.6698 0.972492 14.6473 0.972492 14.4448 1.03749ZM14.7698 1.90249C15.0448 2.64999 15.2123 3.23749 15.2123 3.44499V3.60749L14.9798 3.57999C13.7198 3.43499 11.7098 3.12249 11.2823 3.00749C11.1723 2.97749 11.1098 2.93499 11.1298 2.90249C11.1623 2.84999 11.5898 2.64499 12.8598 2.06749C14.0448 1.52999 14.4948 1.32999 14.5298 1.32749C14.5448 1.32749 14.6523 1.58499 14.7698 1.90249ZM12.1048 3.47999C13.6423 3.80249 14.7623 4.00499 15.0098 4.00499C15.2498 4.00499 15.2223 4.02499 14.0923 4.71499C13.2198 5.24499 13.1198 5.29499 12.8998 5.29499H12.6598L12.0148 4.63999C11.2323 3.84749 10.7023 3.26749 10.7023 3.20249C10.7023 3.17499 10.7173 3.16749 10.7398 3.17999C10.7598 3.18999 11.3773 3.32749 12.1048 3.47999ZM10.9698 4.20749C11.3473 4.64749 11.6398 5.01749 11.6248 5.03499C11.5923 5.06749 10.5148 4.79999 9.85485 4.59749C9.27985 4.41999 9.20985 4.35999 9.36235 4.16499C9.46235 4.03499 10.2048 3.41499 10.2598 3.41249C10.2748 3.40999 10.5923 3.76499 10.9698 4.20749ZM15.8748 5.11999C16.0248 5.47749 16.1398 5.76749 16.1348 5.77249C16.1273 5.77749 14.1073 5.46499 13.9298 5.42999C13.8923 5.42249 14.2348 5.18999 14.6948 4.90999C15.1548 4.62999 15.5473 4.41749 15.5673 4.43999C15.5873 4.45749 15.7248 4.76249 15.8748 5.11999ZM11.4698 5.79749C11.5098 5.83749 11.9923 7.38749 11.9698 7.40749C11.9623 7.41499 11.7323 7.14999 11.4598 6.81249C11.1848 6.47499 10.7723 6.00249 10.5348 5.75499L10.1073 5.30749L10.7748 5.53749C11.1398 5.66499 11.4548 5.78249 11.4698 5.79749ZM13.3998 6.00499C14.2373 6.12499 14.9323 6.23249 14.9448 6.24499C14.9548 6.25749 14.4498 6.64999 13.8198 7.11999C13.1898 7.58749 12.6698 7.96499 12.6623 7.95749C12.6548 7.94999 12.5923 7.75499 12.5223 7.52249C12.4523 7.28999 12.2723 6.80749 12.1248 6.44499C11.9773 6.08249 11.8623 5.78749 11.8673 5.78749C11.8723 5.78749 12.5623 5.88749 13.3998 6.00499ZM15.5048 6.67499C15.6898 7.10749 15.7623 7.52249 15.7923 8.34999C15.8073 8.79499 15.8098 9.15749 15.7948 9.15749C15.7798 9.15749 15.5148 9.06499 15.2073 8.95499C14.5923 8.73249 13.3873 8.33499 13.2448 8.30749C13.1823 8.29499 13.4723 8.01749 14.2348 7.35999C14.8298 6.84749 15.3348 6.42999 15.3573 6.42999C15.3823 6.43249 15.4473 6.54249 15.5048 6.67499ZM17.6648 6.77999C18.5923 6.96999 19.4023 7.13999 19.4673 7.15499C19.5598 7.17749 19.3373 7.31749 18.3573 7.85499C17.6823 8.22499 16.9173 8.64499 16.6573 8.79249C16.3948 8.93999 16.1798 9.05249 16.1748 9.04749C16.1698 9.04249 16.1973 8.90499 16.2348 8.73999C16.3748 8.13999 16.2873 7.38999 16.0073 6.79249C15.9248 6.61999 15.8573 6.46749 15.8573 6.45499C15.8573 6.41249 16.0248 6.44249 17.6648 6.77999ZM20.1923 7.91249C20.1448 8.12249 20.0423 8.47999 19.9598 8.71249C19.7823 9.22249 19.1348 10.545 19.0473 10.58C19.0123 10.595 18.7073 10.4525 18.3748 10.2675C18.0423 10.0825 17.5598 9.83749 17.3073 9.72499L16.8473 9.51999L18.5448 8.43249C19.9523 7.52999 20.2448 7.35999 20.2598 7.43999C20.2698 7.48999 20.2398 7.70249 20.1923 7.91249ZM21.4323 7.52499C23.1923 8.02999 25.0498 8.71249 24.9423 8.81499C24.9198 8.83499 24.6898 8.91249 24.4323 8.98499C23.1048 9.36249 21.2573 9.99999 20.3923 10.38C20.1248 10.4975 19.8923 10.585 19.8798 10.5725C19.8673 10.56 19.9723 10.17 20.1148 9.70999C20.3923 8.80249 20.7148 7.57749 20.7148 7.41999C20.7148 7.34999 20.7398 7.32749 20.8023 7.34499C20.8473 7.35749 21.1298 7.43749 21.4323 7.52499ZM13.8648 9.34999C14.2673 9.48249 14.7348 9.65999 14.9073 9.74749C15.2198 9.90499 15.2223 9.90749 15.1323 10.005C14.9723 10.1825 13.2248 11.81 13.1748 11.8275C13.1498 11.8375 13.1298 11.59 13.1298 11.2325C13.1273 10.6125 13.0573 9.49499 13.0048 9.24499C12.9648 9.06249 12.9973 9.06499 13.8648 9.34999ZM25.0398 9.67249C24.6548 10.3075 24.0223 11.2125 23.5648 11.7825C23.0973 12.3675 22.1098 13.4675 22.0523 13.4675C22.0298 13.4675 21.8873 13.29 21.7348 13.07C21.1723 12.2675 20.5198 11.5725 19.9473 11.1675C19.8923 11.13 19.8598 11.0875 19.8723 11.075C19.8848 11.0625 20.8248 10.7175 21.9548 10.3075C24.2448 9.47749 25.2523 9.13999 25.3148 9.18499C25.3198 9.19249 25.1973 9.40999 25.0398 9.67249ZM26.4723 9.56499C28.0523 10.6675 29.1273 11.56 29.5173 12.0925C29.6148 12.2275 29.6873 12.3425 29.6773 12.35C29.6673 12.3575 29.1598 12.415 28.5448 12.475C26.0923 12.7175 24.3448 12.9625 23.4198 13.1975C23.1723 13.26 22.9648 13.3075 22.9623 13.305C22.9573 13.3 23.1198 13.1 23.3273 12.8525C24.3973 11.57 25.3623 10.235 25.7223 9.54249C25.8173 9.35999 25.9098 9.20999 25.9298 9.20999C25.9473 9.20749 26.1898 9.36749 26.4723 9.56499ZM17.6148 10.9325C17.9173 11.095 18.1498 11.245 18.1373 11.27C18.1148 11.315 15.4473 12.775 15.4248 12.755C15.4198 12.75 15.5573 12.3125 15.7323 11.7775C15.9073 11.2425 16.0773 10.6625 16.1098 10.485L16.1698 10.16L16.6198 10.4C16.8698 10.5325 17.3123 10.77 17.6148 10.9325ZM15.3823 11.0175C15.1248 11.91 14.6023 13.06 14.3648 13.26C14.3098 13.305 14.2023 13.2425 13.8498 12.9575C13.6023 12.7575 13.3498 12.56 13.2823 12.515C13.2173 12.47 13.1698 12.4225 13.1798 12.41C13.3623 12.2275 15.4873 10.515 15.4973 10.5425C15.5048 10.56 15.4523 10.775 15.3823 11.0175ZM20.2123 12.57C20.6148 12.8375 21.5048 13.635 21.4573 13.685C21.4448 13.6975 20.5398 13.9925 19.4498 14.335C18.3598 14.68 17.1448 15.07 16.7498 15.2025C16.3523 15.335 16.0273 15.44 16.0248 15.435C16.0198 15.43 16.2973 15.115 16.6398 14.7325C17.5323 13.7375 18.4498 12.67 18.7748 12.25L19.0548 11.8875L19.4223 12.085C19.6198 12.195 19.9798 12.415 20.2123 12.57ZM18.1473 11.9975C18.1223 12.03 17.8823 12.335 17.6123 12.6775C17.3423 13.0175 16.6973 13.8475 16.1723 14.52L15.2198 15.745L15.1873 15.5375C15.1273 15.135 14.9123 14.3525 14.7898 14.085L14.6673 13.8175L15.2723 13.515C15.8973 13.2025 17.1998 12.495 17.8098 12.14C18.1948 11.915 18.2198 11.905 18.1473 11.9975ZM13.0948 13.4775C13.3423 13.605 13.5748 13.77 13.5748 13.8225C13.5748 13.9025 11.9623 15.1475 11.9198 15.1C11.9098 15.09 12.0548 14.8025 12.2423 14.46C12.4323 14.1175 12.6223 13.735 12.6673 13.605C12.7123 13.475 12.7823 13.37 12.8173 13.37C12.8573 13.37 12.9823 13.42 13.0948 13.4775ZM14.4698 15.01C14.5823 15.2275 14.6973 15.84 14.6373 15.895C14.6123 15.9175 13.9473 16.2325 13.1548 16.595C12.3623 16.9575 11.3348 17.445 10.8623 17.68C10.3923 17.915 10.0348 18.08 10.0698 18.05C10.1048 18.0175 10.6223 17.585 11.2223 17.085C12.3823 16.12 13.7048 14.9675 13.9473 14.7125L14.0923 14.56L14.2348 14.6975C14.3148 14.7725 14.4198 14.9125 14.4698 15.01ZM13.1673 14.9975C13.0523 15.1 12.4323 15.6425 11.7923 16.1975C11.1523 16.75 10.3823 17.42 10.0823 17.6825C9.47735 18.21 9.47735 18.21 10.2498 17.2025C10.8473 16.4225 11.1598 16.1325 12.0173 15.5575C12.4348 15.2775 13.2648 14.81 13.3448 14.81C13.3623 14.8075 13.2823 14.895 13.1673 14.9975ZM19.1748 15.5275C19.2073 15.69 19.2448 16.2 19.2623 16.655L19.2923 17.485L19.0998 17.395C18.4348 17.0875 16.5673 16.035 16.6373 16.0075C17.0448 15.845 19.0623 15.175 19.0848 15.1975C19.1023 15.215 19.1423 15.3625 19.1748 15.5275ZM17.5898 17.0125C18.3673 17.47 19.0098 17.85 19.0198 17.8575C19.0298 17.865 18.9273 17.95 18.7998 18.045C18.5523 18.2275 15.9148 19.59 15.8798 19.555C15.8698 19.545 15.9048 19.3175 15.9573 19.055C16.0648 18.525 16.1623 16.945 16.1148 16.4425C16.0998 16.265 16.1048 16.14 16.1298 16.155C16.1573 16.17 16.8123 16.555 17.5898 17.0125ZM15.4398 16.6775C15.4998 17.17 15.4273 18.16 15.2948 18.675C15.1373 19.28 15.0473 19.5325 14.9798 19.555C14.8873 19.5875 14.3123 19.0625 13.9598 18.625C13.6048 18.185 13.1398 17.355 13.2098 17.2875C13.2523 17.2475 15.3073 16.4 15.3698 16.3975C15.3898 16.395 15.4223 16.5225 15.4398 16.6775ZM12.9198 17.915C13.1373 18.365 13.6348 19.015 14.1798 19.565C14.5298 19.9175 14.6173 20.0325 14.5623 20.0675C14.3173 20.2325 13.2248 20.745 12.5348 21.015C11.6973 21.345 10.6098 21.72 10.5848 21.69C10.5748 21.68 10.8248 21.225 11.1398 20.68C11.8223 19.495 12.6848 17.82 12.6848 17.6825C12.6848 17.5075 12.7573 17.5775 12.9198 17.915ZM11.6298 17.9425C11.6173 17.9775 11.5123 18.2375 11.3998 18.525C10.9148 19.755 9.97235 21.425 9.76235 21.425C9.59985 21.425 9.35985 20.4525 9.29235 19.5175L9.25735 19.0475L10.4098 18.465C11.0448 18.145 11.5823 17.8825 11.6098 17.8825C11.6323 17.88 11.6423 17.9075 11.6298 17.9425ZM19.3248 19.08C19.3298 19.7875 19.0323 21.5 18.8748 21.6725C18.8098 21.745 18.0773 21.475 17.4198 21.135C16.8298 20.83 15.8598 20.2275 15.8598 20.1675C15.8598 20.15 16.0073 20.075 16.1923 19.9975C16.5423 19.85 18.1698 18.98 18.8598 18.5725L19.2573 18.3375L19.2923 18.5175C19.3048 18.615 19.3223 18.8725 19.3248 19.08ZM8.46735 19.8975C8.53485 20.4575 8.70735 21.1425 8.92235 21.6875C9.00985 21.91 9.07235 22.1025 9.06235 22.1125C8.97735 22.19 5.51485 23.1425 5.05735 23.215L4.83985 23.25L4.87235 23.0825C4.91985 22.845 5.25485 22.16 5.50485 21.79C5.81485 21.33 6.58235 20.56 7.08985 20.2025C7.46735 19.935 8.37735 19.405 8.40485 19.435C8.40735 19.4375 8.43735 19.645 8.46735 19.8975ZM16.3223 21.0775C17.3923 21.59 17.7973 21.7675 18.3098 21.945L18.7023 22.08L18.4548 22.205C17.0523 22.915 14.5723 23.9275 13.9298 24.0525C13.7873 24.08 13.7673 24.0725 13.7948 24.0025C13.9048 23.715 15.3848 20.6575 15.4123 20.6575C15.4298 20.655 15.8423 20.8475 16.3223 21.0775ZM14.4398 20.9625C14.3648 21.3225 13.9573 22.49 13.7198 23.02C13.5148 23.48 13.0398 24.3775 12.9548 24.4625C12.9173 24.5 12.0723 24.0225 11.6723 23.7375C11.2223 23.4175 10.2373 22.4675 10.2648 22.38C10.2748 22.3475 10.8748 22.1175 11.5973 21.8675C13.1198 21.3425 13.9723 21.025 14.2198 20.8975C14.4598 20.7725 14.4798 20.78 14.4398 20.9625ZM18.6973 22.575C18.6823 22.68 18.5973 23.14 18.5048 23.605C18.2148 25.0625 17.8623 26.0575 17.6373 26.0575C17.3273 26.0575 15.2048 25.5425 14.5198 25.3C14.0548 25.135 13.6523 24.9475 13.5198 24.83C13.4373 24.7575 13.4798 24.7325 14.0898 24.4825C16.0523 23.6825 18.3148 22.6625 18.5598 22.4675C18.7023 22.355 18.7248 22.37 18.6973 22.575ZM8.76735 23.02C8.54485 23.4175 8.08735 24.075 7.21735 25.25L6.47485 26.25L6.25235 26.09C5.93985 25.8675 5.44485 25.3275 5.23735 24.985C5.01485 24.6175 4.86235 24.165 4.84485 23.82L4.82985 23.5525L5.19735 23.515C5.69485 23.465 7.08485 23.1775 8.07735 22.9175C8.52735 22.8 8.90235 22.71 8.91235 22.7175C8.91985 22.7275 8.85485 22.8625 8.76735 23.02ZM10.9248 24.0475C11.1723 24.225 11.5123 24.45 11.6873 24.5525L12.0048 24.7375L11.8623 24.7975C11.7823 24.83 10.6298 25.25 9.29735 25.7325C7.02235 26.555 6.87235 26.6025 6.80985 26.5175C6.77235 26.4675 6.74735 26.415 6.75235 26.3975C6.75735 26.38 7.37235 25.5875 8.11985 24.63L9.47735 22.8925L9.97735 23.31C10.2573 23.5425 10.6773 23.87 10.9248 24.0475ZM11.4848 26.66C10.9873 27.4025 10.5673 28.03 10.5523 28.05C10.5148 28.1 9.71985 27.9125 9.12485 27.715C8.49985 27.505 7.72985 27.115 7.42985 26.8575L7.21235 26.67L7.70235 26.5375C9.70985 25.99 12.3648 25.2875 12.3773 25.2975C12.3873 25.3 11.9823 25.9175 11.4848 26.66ZM13.8748 25.535C14.9373 25.9 15.9073 26.1075 17.1648 26.2425L17.5123 26.28L16.5748 26.6175C14.2348 27.4625 12.3398 28.055 11.3848 28.24C11.1173 28.2925 10.8723 28.335 10.8448 28.335C10.8173 28.335 11.0098 28.0725 11.2723 27.755C11.9873 26.8825 12.7623 25.89 12.9673 25.585C13.0673 25.4375 13.1673 25.3125 13.1898 25.3125C13.2123 25.315 13.5173 25.4125 13.8748 25.535ZM17.3623 27.505C16.9598 28.545 16.6648 29.1775 16.5598 29.2175C16.3598 29.295 13.5973 28.8875 12.7548 28.66C12.1948 28.5075 11.8373 28.36 11.9423 28.3225C11.9823 28.3075 12.3823 28.215 12.8348 28.1125C14.2973 27.7825 16.5273 27.105 17.4498 26.71C17.5698 26.66 17.6748 26.6225 17.6823 26.63C17.6873 26.6375 17.5448 27.03 17.3623 27.505Z" fill="black"/>
</svg>
