<svg width="32" height="32" viewBox="0 0 32 32" fill="none" xmlns="http://www.w3.org/2000/svg">
<path d="M28.2267 4.33334C28.52 4.33334 28.7822 4.44445 29.0133 4.66668C29.2267 4.88001 29.3333 5.13779 29.3333 5.44001V26.56C29.3333 26.8622 29.2267 27.12 29.0133 27.3333C28.7822 27.5556 28.52 27.6667 28.2267 27.6667H10.44C10.1467 27.6667 9.88445 27.5556 9.65334 27.3333C9.44 27.12 9.33334 26.8622 9.33334 26.56V22.6667H3.77334C3.48001 22.6667 3.21778 22.56 2.98667 22.3467C2.77334 22.1156 2.66667 21.8533 2.66667 21.56V10.44C2.66667 10.1467 2.77334 9.88445 2.98667 9.65334C3.21778 9.44001 3.48001 9.33334 3.77334 9.33334H9.33334V5.44001C9.33334 5.13779 9.44 4.88001 9.65334 4.66668C9.88445 4.44445 10.1467 4.33334 10.44 4.33334M9.33334 17.4133L10.9067 20.3733H13.2933L10.6667 16.08L13.24 11.8533H10.96L9.50667 14.5333L9.45334 14.6133L9.41334 14.7067C9.18223 14.2356 8.93334 13.76 8.66667 13.28C8.44445 12.8089 8.20889 12.3333 7.96 11.8533H5.54667L8.06667 16.1067L5.33334 20.3733H7.70667M18.5067 26V22.6667H11V26M18.5067 21V16.84H16V21M18.5067 15.1733V11H16V15.1733M18.5067 9.33334V6.00001H11V9.33334M27.6667 26V22.6667H20.1733V26M27.6667 21V16.84H20.1733V21M27.6667 15.1733V11H20.1733V15.1733M27.6667 9.33334V6.00001H20.1733V9.33334H27.6667Z" fill="black"/>
</svg>
