<svg width="32" height="32" viewBox="0 0 32 32" fill="none" xmlns="http://www.w3.org/2000/svg">
<g clip-path="url(#clip0_2_275)">
<path d="M12.95 20.3C12.95 20.55 12.675 20.775 12.225 21.1C11.925 21.3 11.7 21.425 11.5 21.425C11.325 21.425 11.15 21.4 10.975 21.325C10.825 21.25 10.675 21.175 10.55 21.05C10.425 20.925 10.325 20.8 10.275 20.65C10.2 20.5 10.175 20.325 10.175 20.15V13.75H7.42501V20.15C7.42501 20.55 7.50001 20.925 7.67501 21.25C7.85001 21.6 8.07501 21.9 8.35001 22.15C8.65001 22.4 8.97501 22.6 9.37501 22.75C9.75001 22.9 10.175 22.975 10.625 22.975C11 22.975 11.4 22.875 11.825 22.7C12.225 22.525 12.625 22.275 12.975 21.975V22.825H15.725V13.75H12.975C12.95 13.75 12.95 20.225 12.95 20.3ZM3.42501 24.175C3.42501 24.7 3.37501 25.05 3.30001 25.225C3.22501 25.4 3.10001 25.5 2.95001 25.5C2.87501 25.5 2.80001 25.475 2.70001 25.425C2.60001 25.375 2.50001 25.25 2.37501 25.075C2.25001 24.925 2.12501 24.775 1.95001 24.6C1.77501 24.45 1.55001 24.375 1.25001 24.375C0.875006 24.375 0.550006 24.475 0.325006 24.675C0.100006 24.875 -0.0249939 25.1 -0.0249939 25.4C-0.0249939 25.75 0.175006 26.025 0.600006 26.275C1.00001 26.525 1.60001 26.65 2.37501 26.65C2.95001 26.65 3.47501 26.6 3.92501 26.5C4.40001 26.4 4.80001 26.225 5.12501 25.95C5.45001 25.675 5.72501 25.3 5.90001 24.8C6.07501 24.3 6.17501 23.65 6.17501 22.85V13.475L3.40001 14.225V24.175H3.42501ZM16.825 22.825H19.575V9.32501L16.825 10.1V22.825ZM31.775 15C31.625 14.7 31.4 14.425 31.1 14.225C30.8 14 30.4 13.85 29.925 13.725C29.45 13.6 28.9 13.55 28.25 13.55C27.725 13.55 27.225 13.6 26.75 13.725C26.275 13.85 25.85 14 25.5 14.175C25.125 14.375 24.85 14.6 24.625 14.875C24.4 15.15 24.3 15.425 24.3 15.75C24.3 16.1 24.425 16.375 24.675 16.6C24.925 16.825 25.225 16.925 25.625 16.925C25.875 16.925 26.075 16.9 26.25 16.825C26.425 16.75 26.55 16.65 26.625 16.525C26.725 16.4 26.775 16.275 26.8 16.1C26.825 15.95 26.85 15.775 26.85 15.6C26.85 15.3 26.925 15.05 27.1 14.85C27.275 14.65 27.575 14.525 28 14.525C28.375 14.525 28.675 14.65 28.9 14.9C29.125 15.15 29.225 15.55 29.225 16.125V17L28.925 17.075C28.55 17.2 28.175 17.3 27.8 17.425C27.425 17.55 27.05 17.675 26.7 17.825C26.35 17.975 26.025 18.125 25.725 18.325C25.425 18.5 25.15 18.7 24.925 18.925C24.7 19.15 24.525 19.4 24.375 19.675C24.25 19.95 24.175 20.275 24.175 20.625C24.175 20.975 24.25 21.275 24.375 21.55C24.5 21.825 24.675 22.075 24.925 22.3C25.15 22.5 25.45 22.675 25.775 22.8C26.1 22.925 26.475 22.975 26.9 22.975C27.2 22.975 27.475 22.95 27.7 22.9C27.925 22.85 28.125 22.8 28.3 22.7C28.475 22.6 28.65 22.525 28.8 22.425C28.95 22.325 29.1 22.2 29.25 22.075V22.8H32V16.025C32 15.65 31.925 15.3 31.775 15ZM29.225 20.75C28.95 20.95 28.675 21.125 28.45 21.275C28.225 21.4 28 21.475 27.775 21.475C27.65 21.475 27.55 21.45 27.45 21.375C27.35 21.3 27.275 21.225 27.175 21.1C27.1 20.975 27.025 20.85 26.975 20.7C26.925 20.55 26.9 20.375 26.9 20.2C26.9 19.975 26.975 19.775 27.1 19.575C27.225 19.375 27.425 19.175 27.65 19C27.875 18.825 28.125 18.65 28.375 18.5C28.65 18.35 28.925 18.225 29.175 18.1V20.75H29.225ZM20.725 22.825H23.475V13.475L20.725 14.25V22.825Z" fill="black"/>
<path d="M22.225 13.025C23.2605 13.025 24.1 12.1855 24.1 11.15C24.1 10.1145 23.2605 9.27499 22.225 9.27499C21.1895 9.27499 20.35 10.1145 20.35 11.15C20.35 12.1855 21.1895 13.025 22.225 13.025Z" fill="black"/>
<path d="M4.875 13.025C5.91053 13.025 6.75 12.1855 6.75 11.15C6.75 10.1145 5.91053 9.27499 4.875 9.27499C3.83947 9.27499 3 10.1145 3 11.15C3 12.1855 3.83947 13.025 4.875 13.025Z" fill="black"/>
<path d="M26.725 13.025C27.7605 13.025 28.6 12.1855 28.6 11.15C28.6 10.1145 27.7605 9.27499 26.725 9.27499C25.6895 9.27499 24.85 10.1145 24.85 11.15C24.85 12.1855 25.6895 13.025 26.725 13.025Z" fill="black"/>
<path d="M24.475 9.125C25.5105 9.125 26.35 8.28553 26.35 7.25C26.35 6.21447 25.5105 5.375 24.475 5.375C23.4395 5.375 22.6 6.21447 22.6 7.25C22.6 8.28553 23.4395 9.125 24.475 9.125Z" fill="black"/>
</g>
<defs>
<clipPath id="clip0_2_275">
<rect width="32" height="32" fill="white"/>
</clipPath>
</defs>
</svg>
