<svg width="32" height="32" viewBox="0 0 32 32" fill="none" xmlns="http://www.w3.org/2000/svg">
<g clip-path="url(#clip0_2_265)">
<path d="M16 31.5C11.86 31.5 7.9675 29.8878 5.04 26.9603C2.1125 24.0328 0.5 20.1403 0.5 16C0.5 11.8597 2.11225 7.9675 5.03975 5.03975C7.96725 2.112 11.8597 0.5 16 0.5C20.1403 0.5 24.0328 2.11225 26.9603 5.03975C29.8878 7.96725 31.5 11.8597 31.5 16C31.5 20.1403 29.8878 24.0328 26.9603 26.9603C24.0328 29.8878 20.1403 31.5 16 31.5ZM16 0.955C11.9815 0.955 8.20325 2.52 5.36175 5.3615C2.52 8.20325 0.955 11.9812 0.955 16C0.955 20.0187 2.52 23.797 5.3615 26.6385C8.203 29.48 11.9812 31.045 16 31.045C20.0187 31.045 23.797 29.48 26.6385 26.6385C29.48 23.797 31.045 20.0187 31.045 16C31.045 11.9812 29.48 8.20325 26.6385 5.3615C23.7968 2.52 20.0187 0.955 16 0.955Z" fill="black"/>
<path d="M16 28.0875C9.33501 28.0875 3.91251 22.6653 3.91251 16C3.91251 9.33476 9.33501 3.91251 16 3.91251C22.665 3.91251 28.0875 9.33501 28.0875 16C28.0875 22.665 22.665 28.0875 16 28.0875ZM16 4.08751C9.43151 4.08751 4.08751 9.43126 4.08751 16C4.08751 22.5688 9.43151 27.9125 16 27.9125C22.5685 27.9125 27.9125 22.5685 27.9125 16C27.9125 9.43151 22.5685 4.08751 16 4.08751Z" fill="black"/>
<path d="M16 24.5875C11.265 24.5875 7.41251 20.735 7.41251 16C7.41251 11.265 11.265 7.41251 16 7.41251C20.735 7.41251 24.5875 11.265 24.5875 16C24.5875 20.735 20.735 24.5875 16 24.5875ZM16 7.58751C11.3613 7.58751 7.58751 11.3613 7.58751 16C7.58751 20.6388 11.3613 24.4125 16 24.4125C20.6388 24.4125 24.4125 20.6388 24.4125 16C24.4125 11.3613 20.6388 7.58751 16 7.58751Z" fill="black"/>
<path d="M16 21.0875C13.1948 21.0875 10.9125 18.8053 10.9125 16C10.9125 13.1948 13.1948 10.9125 16 10.9125C18.8053 10.9125 21.0875 13.1948 21.0875 16C21.0875 18.8053 18.8053 21.0875 16 21.0875ZM16 11.0875C13.2913 11.0875 11.0875 13.2913 11.0875 16C11.0875 18.7088 13.2913 20.9125 16 20.9125C18.7088 20.9125 20.9125 18.7088 20.9125 16C20.9125 13.2913 18.7088 11.0875 16 11.0875Z" fill="black"/>
<path d="M16 17.8375C14.9868 17.8375 14.1625 17.0133 14.1625 16C14.1625 14.9868 14.9868 14.1625 16 14.1625C17.0133 14.1625 17.8375 14.9868 17.8375 16C17.8375 17.0133 17.0133 17.8375 16 17.8375ZM16 14.3375C15.0833 14.3375 14.3375 15.0833 14.3375 16C14.3375 16.9168 15.0833 17.6625 16 17.6625C16.9168 17.6625 17.6625 16.9168 17.6625 16C17.6625 15.0833 16.9168 14.3375 16 14.3375Z" fill="black"/>
<path d="M26.7652 24.209L16.2945 16.0493L19.3877 16.0495C19.4151 16.0495 19.4414 16.0386 19.4608 16.0193C19.4801 15.9999 19.491 15.9736 19.491 15.9463C19.4914 15.5792 19.4336 15.2145 19.32 14.8655V14.8653C19.3114 14.8393 19.2929 14.8177 19.2685 14.8054C19.2441 14.793 19.2158 14.7908 19.1897 14.7993L16.2887 15.7415L22.4232 8.05C22.4403 8.02854 22.4481 8.00119 22.445 7.97397C22.4419 7.94674 22.4282 7.92185 22.4067 7.90475C21.5632 7.23142 20.6185 6.69556 19.6077 6.317C19.5951 6.31224 19.5813 6.31002 19.5678 6.31048C19.5542 6.31095 19.5409 6.31408 19.5286 6.3197C19.5162 6.32532 19.5051 6.33332 19.4959 6.34324C19.4867 6.35316 19.4795 6.3648 19.4747 6.3775L16.018 15.5873L13.074 2.688C13.0679 2.66126 13.0515 2.63802 13.0283 2.62339C13.0051 2.60877 12.977 2.60395 12.9502 2.61C10.8458 3.09094 8.88479 4.06252 7.22725 5.4455L7.22675 5.446C7.20588 5.46359 7.19285 5.48873 7.1905 5.51592C7.18816 5.5431 7.1967 5.57011 7.21425 5.591L15.6075 15.6445L5.33675 10.6985C5.31208 10.6866 5.28347 10.6851 5.25764 10.6941C5.23181 10.7032 5.21063 10.7221 5.19875 10.7468C4.10425 13.0083 3.75125 15.6145 4.2045 18.0855C4.20954 18.1124 4.22501 18.1362 4.24753 18.1518C4.27006 18.1673 4.29781 18.1733 4.32475 18.1685L15.2617 16.1835L9.833 18.7978C9.80837 18.8097 9.78924 18.831 9.78024 18.8568C9.77124 18.8827 9.77286 18.9111 9.78475 18.9358C9.94149 19.261 10.1235 19.5734 10.329 19.8703C10.3449 19.8926 10.3688 19.9078 10.3958 19.9127C10.4227 19.9176 10.4505 19.9118 10.4732 19.8965L15.8335 16.1825L14.0047 24.1948C13.9988 24.2215 14.0036 24.2495 14.0181 24.2727C14.0327 24.296 14.0558 24.3125 14.0825 24.3188C14.7062 24.4613 15.3525 24.533 15.9975 24.533C16.4782 24.5333 16.958 24.493 17.432 24.4128C17.459 24.4082 17.4832 24.393 17.4991 24.3707C17.5149 24.3483 17.5213 24.3206 17.5167 24.2935L16.1625 16.3235L24.3767 26.624C24.3938 26.6454 24.4186 26.6591 24.4458 26.6623C24.473 26.6654 24.5003 26.6577 24.5217 26.6408C25.3628 25.9702 26.1218 25.2027 26.783 24.3543C26.7914 24.3436 26.7976 24.3313 26.8013 24.3182C26.8049 24.3051 26.8059 24.2914 26.8043 24.2779C26.8026 24.2644 26.7983 24.2514 26.7916 24.2396C26.7849 24.2277 26.776 24.2174 26.7652 24.209Z" fill="black"/>
<path d="M16.0875 31.3375H15.9125V16.2113L5.21651 26.907L5.09276 26.7833L5.15476 26.7215L15.7888 16.0875H0.662506V15.9125H15.7888L5.09301 5.21651L5.21676 5.09276L15.9125 15.7888V0.662506H16.0875V15.7888L26.7835 5.09301L26.9073 5.21676L26.8453 5.27876L16.2113 15.9125H31.3375V16.0875H16.2113L26.907 26.7835L26.7833 26.9073L26.7215 26.8453L16.0875 16.2113V31.3375Z" fill="black"/>
</g>
<defs>
<clipPath id="clip0_2_265">
<rect width="32" height="32" fill="white"/>
</clipPath>
</defs>
</svg>
