<svg width="32" height="32" viewBox="0 0 32 32" fill="none" xmlns="http://www.w3.org/2000/svg">
<path d="M12.78 15.5893H18.5507C18.5507 15.5893 21.7933 15.6413 21.7933 12.456V7.188C21.7933 7.188 22.2853 4 15.9147 4C9.816 4 10.196 6.644 10.196 6.644L10.204 9.384H16.0213V10.2067H7.89333C7.89333 10.2067 3.99066 9.764 3.99066 15.916C3.99066 22.068 7.39733 21.8493 7.39733 21.8493H9.42933V18.9947C9.42933 18.9947 9.31866 15.5893 12.78 15.5893ZM12.7053 7.936C12.4277 7.936 12.1615 7.82573 11.9652 7.62944C11.7689 7.43315 11.6587 7.16693 11.6587 6.88933C11.6587 6.61174 11.7689 6.34552 11.9652 6.14923C12.1615 5.95294 12.4277 5.84267 12.7053 5.84267C12.9829 5.84267 13.2491 5.95294 13.4454 6.14923C13.6417 6.34552 13.752 6.61174 13.752 6.88933C13.752 7.16693 13.6417 7.43315 13.4454 7.62944C13.2491 7.82573 12.9829 7.936 12.7053 7.936Z" fill="black"/>
<path d="M24.6027 10.0427H22.5707V12.8973C22.5707 12.8973 22.6813 16.3027 19.22 16.3027H13.4493C13.4493 16.3027 10.2067 16.2493 10.2067 19.436V24.704C10.2067 24.704 9.71465 27.892 16.0853 27.892C22.1827 27.892 21.8027 25.248 21.8027 25.248L21.7947 22.5093H15.9773V21.6867H24.1067C24.1067 21.6867 28.0093 22.1293 28.0093 15.9773C28.0093 9.82533 24.6027 10.0427 24.6027 10.0427ZM19.2947 23.9573C19.5722 23.9573 19.8385 24.0676 20.0348 24.2639C20.231 24.4602 20.3413 24.7264 20.3413 25.004C20.3413 25.2816 20.231 25.5478 20.0348 25.7441C19.8385 25.9404 19.5722 26.0507 19.2947 26.0507C19.0171 26.0507 18.7508 25.9404 18.5545 25.7441C18.3583 25.5478 18.248 25.2816 18.248 25.004C18.248 24.7264 18.3583 24.4602 18.5545 24.2639C18.7508 24.0676 19.0171 23.9573 19.2947 23.9573Z" fill="black"/>
</svg>
