<svg width="32" height="32" viewBox="0 0 32 32" fill="none" xmlns="http://www.w3.org/2000/svg">
<g clip-path="url(#clip0_2_288)">
<path d="M30.5492 19.0408C35.72 10.8025 25.9061 5.42151 19.3446 4.17908C6.19475 1.6892 -7.422 13.4385 4.71638 22.3088C6.51638 23.6241 9.11163 24.5152 11.9928 24.9285V28.16H17.3691V25.1448C18.9228 25.0535 20.4716 24.8292 21.9474 24.4643C22.8976 26.3134 23.7118 28.1599 23.7118 28.1599H29.8129C29.8129 28.1599 27.8315 24.8021 26.5668 22.6821C28.2251 21.7465 29.6089 20.5388 30.5492 19.0408ZM17.369 22.7086V20.7531H19.3625C19.7133 20.7531 20.2929 21.5298 20.9163 22.5799C19.7403 22.7165 18.5409 22.7572 17.3691 22.7086M21.3794 17.2021H17.3691V13.6135H21.3794C21.3794 13.6135 22.7161 14.2087 22.7161 15.4354C22.7161 16.662 21.3794 17.2021 21.3794 17.2021ZM25.7681 21.3521C25.7079 21.2525 25.6467 21.1535 25.5845 21.0551C25.1253 20.3379 23.0129 19.847 23.0129 19.847C23.0129 19.847 28.0008 19.6053 27.9404 14.5915C27.8953 10.8446 24.1795 9.81933 22.3147 9.81933H11.9928V21.7416C11.1853 21.4532 10.4613 21.1045 9.85569 20.6977C0.554191 14.4496 10.9885 6.17376 21.0651 7.92751C26.0931 8.80264 33.6134 12.593 29.6511 18.3958C28.7786 19.6736 27.4074 20.6514 25.7681 21.3521" fill="black"/>
</g>
<defs>
<clipPath id="clip0_2_288">
<rect width="32" height="32" fill="white"/>
</clipPath>
</defs>
</svg>
