<svg width="32" height="32" viewBox="0 0 32 32" fill="none" xmlns="http://www.w3.org/2000/svg">
<g clip-path="url(#clip0_2_263)">
<path d="M8.51 16.39C6.2425 14.125 2.9425 13.7475 1.14 15.5475C-0.662498 17.35 -0.284997 20.6475 1.9825 22.9125C4.25 25.18 8.5825 24.5225 9.3525 23.755C9.975 23.1325 10.78 18.655 8.51 16.39ZM25.9975 9.33999C22.89 6.23499 17.205 6.88499 13.2975 10.79C9.39 14.695 10.52 22.16 11.8475 23.485C12.92 24.5575 20.64 25.94 24.5475 22.035C24.825 21.7575 25.0825 21.4725 25.3275 21.1775C25.385 20.7875 25.6 20.2975 25.9775 19.7025C25.76 19.815 25.52 19.8925 25.2625 19.9375C25.07 20.29 24.77 20.67 24.36 21.0775C23.8875 21.525 23.55 21.8175 23.3475 21.9525C23.145 22.0875 22.95 22.155 22.765 22.155C22.3 22.155 22.08 21.745 22.1075 20.9225C21.8125 21.3425 21.54 21.655 21.2925 21.855C21.0425 22.055 20.7875 22.155 20.52 22.155C20.2525 22.155 20.04 22.035 19.86 21.79C19.7175 21.6 19.6325 21.3725 19.6025 21.1125C19.245 21.4625 18.92 21.7225 18.6325 21.89C18.335 22.065 18.0075 22.1525 17.6475 22.1525C17.2475 22.1525 16.9225 22.025 16.6775 21.7675C16.495 21.5775 16.3825 21.345 16.335 21.0675V21.0725C15.935 21.44 15.5825 21.7125 15.28 21.8875C14.9775 22.0625 14.69 22.15 14.415 22.15C14.1 22.15 13.845 22.0275 13.6525 21.7825C13.46 21.5375 13.3625 21.21 13.3625 20.7975C13.3625 20.18 13.4975 19.4375 13.765 18.5725C14.0325 17.7075 14.3575 16.9075 14.7425 16.1775L15.865 15.7625C15.9 15.75 15.9275 15.745 15.945 15.745C16.03 15.745 16.1 15.8075 16.155 15.9325C16.21 16.0575 16.2375 16.2275 16.2375 16.4375C16.2375 17.0375 16.1 17.62 15.8225 18.1825C15.545 18.745 15.1125 19.345 14.5225 19.985C14.5 20.2925 14.4875 20.5025 14.4875 20.6175C14.4875 20.875 14.535 21.0775 14.63 21.2275C14.725 21.3775 14.85 21.4525 15.005 21.4525C15.16 21.4525 15.3325 21.395 15.5125 21.28C15.69 21.1675 15.9575 20.935 16.315 20.5825C16.3525 20.0275 16.565 19.5175 16.9575 19.06C17.39 18.555 17.87 18.3025 18.3975 18.3025C18.6725 18.3025 18.89 18.3725 19.055 18.515C19.22 18.6575 19.3025 18.8425 19.3025 19.0725C19.3025 19.6825 18.655 20.1775 17.3575 20.5575C17.475 21.1325 17.7825 21.42 18.28 21.42C18.475 21.42 18.66 21.3675 18.8375 21.2625C19.01 21.16 19.265 20.94 19.6025 20.6C19.645 20.265 19.76 19.94 19.9475 19.63C20.19 19.23 20.5025 18.905 20.8825 18.6575C21.2625 18.41 21.5975 18.285 21.89 18.285C22.2575 18.285 22.5175 18.455 22.6625 18.7925L23.565 18.2925H23.8125L23.4225 19.5875C23.2225 20.2375 23.1225 20.685 23.1225 20.925C23.1225 21.165 23.2125 21.305 23.3925 21.305C23.5075 21.305 23.6325 21.245 23.7725 21.1225C23.905 21.005 24.0925 20.8275 24.33 20.59C24.53 20.375 24.715 20.1475 24.88 19.905C24.625 19.7925 24.5 19.6275 24.5 19.405C24.5 19.1825 24.5775 18.935 24.7325 18.6775C24.8875 18.42 25.1 18.2925 25.37 18.2925C25.6 18.2925 25.715 18.41 25.715 18.645C25.715 18.83 25.65 19.095 25.515 19.44C26.005 19.3875 26.4325 19.0125 26.7975 18.3175L27.1 18.305C28.5125 15.055 28.205 11.5425 25.995 9.33249L25.9975 9.33999ZM18.855 16.6425C18.81 16.7125 18.745 16.765 18.6575 16.8025C18.5725 16.84 18.475 16.86 18.3675 16.86C18.1875 16.86 18.0525 16.8225 17.9575 16.7475C17.8625 16.6725 17.8025 16.5625 17.7775 16.415L18.01 16.3775C18.0225 16.47 18.06 16.5425 18.1175 16.59C18.1775 16.64 18.26 16.665 18.3675 16.665C18.475 16.665 18.555 16.6425 18.6075 16.6C18.66 16.5575 18.685 16.505 18.685 16.445C18.685 16.3925 18.6625 16.35 18.615 16.32C18.5825 16.3 18.5025 16.2725 18.375 16.24C18.2025 16.1975 18.085 16.16 18.0175 16.1275C17.95 16.095 17.9 16.0525 17.8675 15.995C17.8325 15.94 17.815 15.8775 17.815 15.81C17.815 15.7475 17.83 15.6925 17.8575 15.64C17.885 15.5875 17.925 15.545 17.9725 15.51C18.01 15.4825 18.0575 15.46 18.12 15.4425C18.1825 15.425 18.25 15.415 18.3225 15.415C18.43 15.415 18.525 15.43 18.6075 15.4625C18.69 15.4925 18.75 15.535 18.79 15.59C18.83 15.6425 18.855 15.715 18.87 15.805L18.64 15.835C18.63 15.765 18.6 15.7075 18.55 15.6675C18.5 15.6275 18.43 15.6075 18.3375 15.6075C18.23 15.6075 18.1525 15.625 18.1075 15.66C18.0625 15.695 18.0375 15.7375 18.0375 15.785C18.0375 15.815 18.0475 15.8425 18.065 15.8675C18.085 15.8925 18.115 15.9125 18.155 15.93C18.1775 15.9375 18.2475 15.9575 18.3625 15.99C18.5275 16.035 18.6425 16.07 18.71 16.0975C18.775 16.125 18.8275 16.1675 18.865 16.22C18.9025 16.2725 18.92 16.34 18.92 16.42C18.92 16.5 18.8975 16.5725 18.8525 16.64L18.855 16.6425ZM20.14 16.725C20.0375 16.815 19.91 16.86 19.7575 16.86C19.5675 16.86 19.4175 16.7975 19.3025 16.675C19.1875 16.5525 19.13 16.375 19.13 16.145C19.13 15.995 19.155 15.865 19.205 15.7525C19.255 15.64 19.33 15.5575 19.43 15.5C19.53 15.445 19.64 15.415 19.76 15.415C19.91 15.415 20.0325 15.4525 20.1275 15.5275C20.2225 15.6025 20.285 15.71 20.31 15.85L20.0825 15.885C20.06 15.7925 20.0225 15.7225 19.9675 15.675C19.9125 15.6275 19.845 15.605 19.7675 15.605C19.65 15.605 19.555 15.6475 19.48 15.7325C19.405 15.8175 19.37 15.95 19.37 16.1325C19.37 16.315 19.405 16.4525 19.4775 16.5375C19.5475 16.6225 19.6425 16.6625 19.755 16.6625C19.8475 16.6625 19.9225 16.635 19.985 16.5775C20.0475 16.5225 20.085 16.435 20.1025 16.3175L20.3325 16.3475C20.3075 16.505 20.2425 16.63 20.14 16.72V16.725ZM20.77 16.8275H20.535V15.4475H20.77V16.8275ZM20.77 15.19H20.535V14.92H20.77V15.19ZM21.9825 16.8275L21.525 16.1225L21.36 16.28V16.8275H21.125V14.9225H21.36V16.01L21.915 15.4475H22.2175L21.69 15.96L22.2725 16.8275H21.9825ZM22.6925 16.8275H22.4575V15.4475H22.6925V16.8275ZM22.6925 15.19H22.4575V14.92H22.6925V15.19ZM23.4175 16.845C23.3325 16.845 23.2675 16.8325 23.22 16.805C23.1766 16.782 23.1423 16.745 23.1225 16.7C23.1025 16.655 23.095 16.565 23.095 16.425V15.63H22.9225V15.4475H23.095V15.105L23.3275 14.965V15.4475H23.5625V15.63H23.3275V16.4375C23.3275 16.505 23.3325 16.5475 23.34 16.565C23.3475 16.585 23.3625 16.6 23.38 16.61C23.3975 16.6225 23.425 16.6275 23.46 16.6275C23.485 16.6275 23.52 16.625 23.5625 16.6175L23.5975 16.825C23.5325 16.84 23.4725 16.845 23.42 16.845H23.4175ZM22.24 18.79C22.3125 18.8825 22.35 19.0125 22.35 19.1775C22.35 19.6025 22.22 20.065 21.96 20.5675C21.7 21.07 21.42 21.32 21.1275 21.32C21.0075 21.32 20.9075 21.27 20.83 21.1725C20.7525 21.075 20.7125 20.945 20.7125 20.785C20.7125 20.365 20.845 19.9025 21.1075 19.4025C21.37 18.9025 21.65 18.6525 21.945 18.6525C22.0675 18.6525 22.1675 18.6975 22.24 18.7925V18.79ZM18.4575 19.085C18.4575 19.6575 18.08 20.0475 17.325 20.26C17.325 19.785 17.4125 19.4 17.59 19.105C17.7675 18.8075 17.9525 18.66 18.1475 18.66C18.3525 18.66 18.4575 18.8025 18.4575 19.085ZM15.9025 16.62C15.9025 16.9925 15.7875 17.435 15.5525 17.9525C15.32 18.4675 15.015 18.935 14.6425 19.35C14.8425 18.3725 15.0475 17.615 15.255 17.0725C15.4625 16.53 15.6225 16.2575 15.73 16.2575C15.78 16.2575 15.8225 16.29 15.855 16.3575C15.8875 16.4225 15.9025 16.5125 15.9025 16.62ZM32.005 20.57V21.0775C31.325 21.7975 30.74 22.155 30.255 22.155C30.0575 22.155 29.8975 22.085 29.7775 21.9475C29.6575 21.81 29.595 21.6225 29.595 21.39C29.595 21.075 29.725 20.5925 29.985 19.945C30.1225 19.5975 30.1925 19.375 30.1925 19.2825C30.1925 19.19 30.155 19.14 30.0825 19.14C30.0425 19.14 29.9875 19.16 29.92 19.2025C29.8575 19.2425 29.785 19.3025 29.7025 19.375C29.63 19.4425 29.5475 19.525 29.455 19.6225C29.375 19.705 29.29 19.8 29.2 19.905L28.9525 20.1925C28.8425 20.325 28.775 20.465 28.75 20.6125C28.705 20.8625 28.6775 21.0925 28.6625 21.3025C28.6525 21.4575 28.65 21.6675 28.65 21.935L27.6725 22.165C27.64 21.7675 27.625 21.4725 27.625 21.2775C27.625 21.2225 27.6275 21.17 27.63 21.115C26.91 21.8125 26.3525 22.165 25.96 22.165C25.78 22.165 25.6275 22.09 25.505 21.9375C25.3825 21.785 25.32 21.5975 25.32 21.375C25.32 21.3125 25.3275 21.2475 25.3375 21.18C26.0875 20.28 26.6825 19.31 27.115 18.3125L27.215 18.3075L26.805 19.4375C26.635 19.915 26.5225 20.24 26.4725 20.4125C26.4225 20.585 26.3975 20.7375 26.3975 20.87C26.3975 20.995 26.4275 21.0925 26.4825 21.165C26.54 21.24 26.6175 21.275 26.715 21.275C26.82 21.275 26.9225 21.24 27.02 21.1675C27.1175 21.095 27.335 20.895 27.6725 20.57C27.7 20.35 27.74 20.1375 27.795 19.93C27.905 19.505 28.0825 19.03 28.3275 18.4975L29.405 18.29C29.1775 18.9 29.03 19.38 28.96 19.73C29.4425 19.19 29.8275 18.8175 30.11 18.61C30.3925 18.4025 30.645 18.3 30.8675 18.3C31.0175 18.3 31.1425 18.3575 31.2425 18.47C31.3425 18.5825 31.3925 18.725 31.3925 18.895C31.3925 19.1775 31.265 19.6425 31.0125 20.29C30.8375 20.735 30.7525 21.0225 30.7525 21.155C30.7525 21.3325 30.825 21.42 30.97 21.42C31.185 21.42 31.535 21.135 32.015 20.5675L32.005 20.57Z" fill="black"/>
</g>
<defs>
<clipPath id="clip0_2_263">
<rect width="32" height="32" fill="white"/>
</clipPath>
</defs>
</svg>
